<?xml version="1.0" encoding="UTF-8"?>
<!-- Generator: Adobe Illustrator 17.0.0, SVG Export Plug-In . SVG Version: 6.00 Build 0)  -->
<!DOCTYPE svg PUBLIC "-//W3C//DTD SVG 1.1//EN" "http://www.w3.org/Graphics/SVG/1.1/DTD/svg11.dtd">
<svg version="1.1" id="Слой_1" xmlns="http://www.w3.org/2000/svg" xmlns:xlink="http://www.w3.org/1999/xlink" x="0px" y="0px" width="202.907px" height="121.187px" viewBox="0 0 202.907 121.187" enable-background="new 0 0 202.907 121.187" xml:space="preserve">
<g>
	<g>
		<path fill="#f26439" d="M70.547,49.991c0-4.903-2.954-9.324-7.483-11.2c-4.529-1.877-9.744-0.84-13.21,2.627    c-3.467,3.467-4.505,8.681-2.629,13.212c1.876,4.529,6.297,7.483,11.2,7.483C65.116,62.104,70.54,56.682,70.547,49.991    L70.547,49.991z M58.425,58.685c-3.517,0-6.686-2.118-8.032-5.367c-1.346-3.249-0.602-6.989,1.884-9.474    c2.487-2.486,6.226-3.229,9.474-1.885c3.249,1.346,5.367,4.517,5.367,8.033C67.113,54.789,63.224,58.678,58.425,58.685    L58.425,58.685z M58.425,58.685"/>
		<path fill="#f26439" d="M78.384,49.991c0.004-7.557-4.26-14.468-11.016-17.853c-6.755-3.387-14.844-2.666-20.895,1.86    c-6.052,4.525-9.029,12.08-7.691,19.517c1.338,7.438,6.761,13.481,14.011,15.614v3.918h-8.726c-0.946,0-1.714,0.768-1.714,1.714    v7.837c0,0.946,0.768,1.714,1.714,1.714h8.726v8.725c0,0.948,0.768,1.714,1.714,1.714h7.837c0.946,0,1.714-0.766,1.714-1.714    v-8.729h8.726c0.948,0,1.714-0.768,1.714-1.714v-7.837c0-0.946-0.767-1.714-1.714-1.714h-8.726v-3.918    C72.52,66.59,78.335,58.825,78.384,49.991L78.384,49.991z M62.343,76.471h8.726v4.408h-8.726c-0.946,0-1.714,0.768-1.714,1.714    v8.726h-4.408v-8.726c0-0.946-0.768-1.714-1.714-1.714h-8.726v-4.408h8.726c0.946,0,1.714-0.768,1.714-1.714v-6.955    c0-0.805-0.56-1.501-1.346-1.673c-8.242-1.811-13.796-9.541-12.884-17.93c0.911-8.389,7.995-14.745,16.433-14.745    s15.523,6.356,16.433,14.745c0.912,8.389-4.642,16.118-12.884,17.93c-0.786,0.172-1.346,0.869-1.346,1.673v6.955    C60.629,75.703,61.397,76.471,62.343,76.471L62.343,76.471z M62.343,76.471"/>
		<path fill="#f26439" d="M143.893,62.667c-4.903,0-9.324,2.954-11.2,7.483c-1.876,4.531-0.838,9.745,2.629,13.212    c3.467,3.467,8.681,4.504,13.21,2.627c4.529-1.876,7.483-6.297,7.483-11.2C156.008,68.098,150.584,62.674,143.893,62.667    L143.893,62.667z M143.893,83.483c-3.517,0-6.686-2.118-8.032-5.366c-1.346-3.249-0.602-6.988,1.884-9.474    c2.487-2.487,6.226-3.231,9.474-1.885c3.249,1.346,5.367,4.517,5.367,8.032C152.582,79.589,148.693,83.478,143.893,83.483    L143.893,83.483z M143.893,83.483"/>
		<path fill="#f26439" d="M149.526,55.651V44.366h4.531c1.499,0,2.276-1.787,1.254-2.883l-10.163-10.907    c-0.69-0.697-1.818-0.697-2.508,0l-10.163,10.902c-1.029,1.095-0.25,2.891,1.254,2.888h4.531v11.285    c-9.52,2.801-15.537,12.171-14.122,21.994c1.415,9.823,9.831,17.113,19.755,17.113c9.923,0,18.34-7.291,19.755-17.113    C165.063,67.822,159.046,58.452,149.526,55.651L149.526,55.651z M143.893,91.32c-8.439,0.005-15.527-6.35-16.439-14.74    c-0.912-8.389,4.644-16.118,12.888-17.927c0.786-0.172,1.346-0.869,1.346-1.673V42.647c0-0.946-0.767-1.714-1.714-1.714h-2.302    l6.221-6.672l6.222,6.672h-2.304c-0.946,0-1.714,0.768-1.714,1.714v14.333c0,0.805,0.56,1.501,1.346,1.673    c8.243,1.809,13.8,9.537,12.888,17.927c-0.912,8.389-7.999,14.745-16.437,14.74H143.893z M143.893,91.32"/>
	</g>
	<path fill="#f26439" d="M114.292,47.819H88.026c-0.946,0-1.714,0.768-1.714,1.714v7.837c0,0.946,0.768,1.714,1.714,1.714h26.265   c0.946,0,1.714-0.768,1.714-1.714v-7.837C116.006,48.587,115.238,47.819,114.292,47.819L114.292,47.819z M112.577,55.655H89.741   v-4.408h22.837V55.655z M112.577,55.655"/>
	<path fill="#f26439" d="M114.292,64.598H88.026c-0.945,0-1.712,0.765-1.714,1.71v7.837c0,0.946,0.768,1.714,1.714,1.714h26.265   c0.946,0,1.714-0.768,1.714-1.714v-7.837C116.003,65.363,115.237,64.598,114.292,64.598L114.292,64.598z M112.577,72.435H89.741   v-4.408h22.837V72.435z M112.577,72.435"/>
</g>
</svg>