<?xml version="1.0" encoding="UTF-8"?>
<!-- Generator: Adobe Illustrator 17.0.0, SVG Export Plug-In . SVG Version: 6.00 Build 0)  -->
<!DOCTYPE svg PUBLIC "-//W3C//DTD SVG 1.1//EN" "http://www.w3.org/Graphics/SVG/1.1/DTD/svg11.dtd">
<svg version="1.1" id="Слой_1" xmlns="http://www.w3.org/2000/svg" xmlns:xlink="http://www.w3.org/1999/xlink" x="0px" y="0px" width="202.907px" height="121.187px" viewBox="0 0 202.907 121.187" enable-background="new 0 0 202.907 121.187" xml:space="preserve">
<g>
	<g>
		<path fill="#f26439" d="M135.411,59.846l-4.281,4.281c-0.271,0.272-0.424,0.64-0.424,1.024c0,3.065-1.194,5.948-3.362,8.116    l-22.867,22.867c-0.848,0.848-2.229,0.848-3.078,0c-0.411-0.412-0.638-0.958-0.638-1.539c0-0.506,0.172-0.986,0.488-1.373    l13.241-13.241c0.565-0.565,0.565-1.481,0-2.046c-0.001-0.002-0.002-0.003-0.004-0.005c-0.002-0.002-0.003-0.002-0.005-0.004    c-0.565-0.565-1.481-0.565-2.046,0L96.47,93.908c-0.411,0.411-0.957,0.637-1.538,0.637c-0.581,0-1.128-0.226-1.539-0.637    c-0.795-0.795-0.845-2.057-0.151-2.911l16.134-16.134c0.565-0.565,0.565-1.481,0-2.047c-0.565-0.565-1.481-0.565-2.047,0    L88.547,91.598c-0.411,0.412-0.957,0.638-1.538,0.638c-0.582,0-1.128-0.226-1.539-0.638c-0.411-0.411-0.638-0.957-0.638-1.538    c0-0.581,0.227-1.128,0.638-1.539l18.795-18.778c0.565-0.565,0.565-1.481,0-2.047c-0.565-0.565-1.482-0.565-2.047,0L85.441,84.456    c-0.854,0.694-2.116,0.644-2.91-0.151c-0.411-0.412-0.638-0.958-0.638-1.539c0-0.581,0.226-1.128,0.638-1.539l5.491-5.491    c0.565-0.565,0.565-1.481-0.001-2.046c-0.565-0.565-1.481-0.565-2.047,0l-2.809,2.809l-5.58-5.58    c-3.513-3.513-6.032-7.91-7.287-12.716c-0.066-0.249-0.195-0.476-0.377-0.657l-3.666-3.667c-0.565-0.565-1.482-0.565-2.047,0    c-0.564,0.565-0.565,1.482,0,2.047l3.393,3.392c1.417,5.153,4.156,9.866,7.939,13.648l5.579,5.579l-0.635,0.635    c-0.957,0.957-1.485,2.231-1.485,3.586c0,1.354,0.528,2.628,1.485,3.586c0.603,0.603,1.322,1.021,2.085,1.256    c-0.411,0.742-0.631,1.58-0.631,2.452c0,1.354,0.528,2.628,1.485,3.585c0.958,0.958,2.232,1.486,3.586,1.486    c1.153,0,2.246-0.384,3.137-1.088c0.243,0.699,0.643,1.355,1.2,1.912c0.958,0.957,2.232,1.485,3.586,1.485    c1.191,0,2.319-0.408,3.225-1.157c0.248,0.706,0.653,1.352,1.198,1.897c0.988,0.988,2.287,1.483,3.585,1.483    c1.299,0,2.597-0.494,3.586-1.483l1.852-1.852l1.295,1.295c0.988,0.989,2.287,1.483,3.585,1.483c1.299,0,2.597-0.494,3.586-1.483    c0.807-0.807,1.306-1.837,1.445-2.95c0.284,0.048,0.571,0.074,0.859,0.074c1.299,0,2.597-0.495,3.586-1.483    c0.958-0.958,1.486-2.231,1.486-3.586c0-0.019-0.002-0.038-0.002-0.057c0.018,0,0.036,0.002,0.055,0.002    c1.299,0,2.597-0.495,3.586-1.483c0.957-0.958,1.485-2.231,1.485-3.586c0-0.246-0.018-0.488-0.052-0.727    c1.151-0.121,2.217-0.627,3.047-1.456c0.957-0.958,1.485-2.231,1.485-3.586c0-1.355-0.528-2.628-1.485-3.586l-1.531-1.531    c1.694-2.292,2.662-5.022,2.783-7.906l3.87-3.87c0.565-0.565,0.565-1.481,0-2.047C136.893,59.281,135.977,59.281,135.411,59.846    L135.411,59.846z M114.796,95.576c-0.849,0.848-2.229,0.848-3.078,0l-1.281-1.281l3.078-3.078l1.281,1.281    c0.411,0.411,0.637,0.957,0.637,1.538C115.433,94.618,115.207,95.165,114.796,95.576L114.796,95.576z M121.323,89.678    c0,0.581-0.226,1.128-0.638,1.539c-0.849,0.848-2.229,0.849-3.078,0l-2.047-2.047l3.078-3.078l2.047,2.046    C121.097,88.55,121.323,89.096,121.323,89.678L121.323,89.678z M125.81,86.092c-0.849,0.849-2.23,0.849-3.079,0l-2.046-2.047    l3.078-3.078l2.047,2.047c0.411,0.411,0.637,0.957,0.637,1.538C126.447,85.135,126.221,85.681,125.81,86.092L125.81,86.092z     M130.29,80.323c-0.411,0.411-0.957,0.638-1.539,0.638c-0.581,0-1.128-0.226-1.538-0.638l-1.402-1.401l3.078-3.078l1.402,1.401    c0.411,0.411,0.638,0.957,0.638,1.539C130.927,79.365,130.7,79.912,130.29,80.323L130.29,80.323z M130.29,80.323"/>
		<path fill="#f26439" d="M80.957,44.786c0.271,0.271,0.64,0.425,1.024,0.425h7.469c5.4,0,10.682,1.875,14.874,5.279l11.759,9.551    c-2.876,2.008-6.737,2.282-9.887,0.576l-8.002-4.333c-0.339-0.184-0.739-0.225-1.108-0.112    c-5.054,1.529-10.401,1.543-15.463,0.039l-0.142-0.041c-0.767-0.228-1.571,0.21-1.798,0.976c-0.228,0.766,0.21,1.572,0.976,1.799    l0.142,0.042c5.41,1.606,11.116,1.648,16.539,0.126l2.086,1.13l-4.242,4.242c-0.565,0.565-0.565,1.481,0,2.046    c0.283,0.283,0.653,0.424,1.023,0.424c0.371,0,0.741-0.142,1.023-0.424l4.851-4.851l2.738,1.483    c1.817,0.984,3.805,1.486,5.836,1.486c0.595,0,1.195-0.043,1.795-0.13c2.644-0.384,5.039-1.587,6.928-3.475    c0.29-0.289,0.443-0.688,0.422-1.098c-0.021-0.409-0.215-0.791-0.533-1.049l-11.68-9.485c3.482-2.156,7.461-3.308,11.579-3.336    c0.38-0.003,0.745-0.155,1.013-0.424l17.282-17.281c0.564-0.564,0.564-1.481,0-2.046c-0.565-0.565-1.482-0.565-2.047,0    l-16.868,16.868c-4.782,0.146-9.377,1.633-13.345,4.318c-4.541-3.355-10.088-5.191-15.749-5.191h-6.87L66.255,25.991    c-0.565-0.565-1.482-0.565-2.047,0c-0.565,0.565-0.565,1.482,0,2.047L80.957,44.786z M80.957,44.786"/>
	</g>
	<path fill="#f26439" d="M90.576,69.088c-0.269,0.269-0.423,0.642-0.423,1.023c0,0.382,0.154,0.754,0.423,1.023   c0.271,0.269,0.644,0.425,1.024,0.425c0.381,0,0.753-0.155,1.024-0.425c0.269-0.269,0.424-0.641,0.424-1.023   c0-0.381-0.154-0.754-0.424-1.023c-0.269-0.269-0.643-0.424-1.024-0.424C91.219,68.664,90.846,68.819,90.576,69.088L90.576,69.088z    M90.576,69.088"/>
</g>
</svg>