<?xml version="1.0" encoding="UTF-8"?>
<!-- Generator: Adobe Illustrator 17.0.0, SVG Export Plug-In . SVG Version: 6.00 Build 0)  -->
<!DOCTYPE svg PUBLIC "-//W3C//DTD SVG 1.1//EN" "http://www.w3.org/Graphics/SVG/1.1/DTD/svg11.dtd">
<svg version="1.1" id="Слой_1" xmlns="http://www.w3.org/2000/svg" xmlns:xlink="http://www.w3.org/1999/xlink" x="0px" y="0px" width="202.907px" height="121.187px" viewBox="0 0 202.907 121.187" enable-background="new 0 0 202.907 121.187" xml:space="preserve">
<path fill="#f26439" d="M137.996,59.777l-11.969-24.115c-0.316-0.584-0.921-0.953-1.584-0.968l-0.792,0.176h-15.49  c-1.145-4.423-5.659-7.081-10.082-5.936c-2.91,0.753-5.182,3.026-5.936,5.936h-15.49l-0.792-0.176  c-0.664,0.015-1.268,0.384-1.584,0.968L62.307,59.777c-0.784,0.169-1.338,0.87-1.32,1.672c0,7.393,6.689,13.466,14.874,13.466  s14.962-6.073,14.962-13.466c-0.014-0.791-0.554-1.475-1.32-1.672L78.853,38.39h13.202c0.666,3.184,3.153,5.671,6.337,6.337v30.892  c-5.721,0.704-10.209,5.017-10.913,9.417h-3.872c-1.033,0.083-1.853,0.903-1.936,1.936v7.041c0.092,0.968,0.951,1.678,1.919,1.586  c0.006-0.001,0.012-0.001,0.018-0.002h33.092c0.967,0.102,1.833-0.6,1.934-1.567c0.001-0.006,0.001-0.012,0.002-0.018v-7.041  c-0.083-1.033-0.903-1.853-1.936-1.936h-3.872c-0.704-4.401-5.193-8.713-10.913-9.417V44.727c3.184-0.666,5.671-3.153,6.337-6.337  h13.202l-10.649,21.387c-0.766,0.198-1.306,0.882-1.32,1.672c0,7.393,6.689,13.466,14.962,13.466s14.874-6.073,14.874-13.466  C139.334,60.647,138.78,59.945,137.996,59.777z M75.861,40.238l9.681,19.274H66.267L75.861,40.238z M75.861,71.218  c-5.545,0-10.209-3.784-11.177-8.185h22.443C86.158,67.434,81.493,71.218,75.861,71.218L75.861,71.218z M115.113,92.077H85.19v-3.52  h29.924V92.077z M109.217,85.036h-18.13c0.704-3.52,4.489-6.161,9.065-6.161S108.513,81.515,109.217,85.036z M100.152,41.47  c-2.625,0-4.753-2.128-4.753-4.753s2.128-4.753,4.753-4.753c2.625,0,4.753,2.128,4.753,4.753S102.776,41.47,100.152,41.47  L100.152,41.47z M134.036,59.513h-19.274l9.681-19.274L134.036,59.513z M124.443,71.218c-5.633,0-10.297-3.784-11.265-8.185h22.443  C134.652,67.434,129.987,71.218,124.443,71.218z"/>
</svg>