<?xml version="1.0" encoding="UTF-8"?>
<!-- Generator: Adobe Illustrator 17.0.0, SVG Export Plug-In . SVG Version: 6.00 Build 0)  -->
<!DOCTYPE svg PUBLIC "-//W3C//DTD SVG 1.1//EN" "http://www.w3.org/Graphics/SVG/1.1/DTD/svg11.dtd">
<svg version="1.1" id="Слой_1" xmlns="http://www.w3.org/2000/svg" xmlns:xlink="http://www.w3.org/1999/xlink" x="0px" y="0px" width="202.907px" height="121.187px" viewBox="0 0 202.907 121.187" enable-background="new 0 0 202.907 121.187" xml:space="preserve">
<g>
	<path fill="#f26439" d="M116.787,90.607H84.879c-2.931,0-5.318-2.385-5.318-5.318V60.471c0-2.933,2.387-5.318,5.318-5.318h31.908   c2.931,0,5.318,2.385,5.318,5.318v24.818C122.105,88.222,119.718,90.607,116.787,90.607L116.787,90.607z M84.879,58.699   c-0.976,0-1.773,0.794-1.773,1.773v24.818c0,0.979,0.796,1.773,1.773,1.773h31.908c0.976,0,1.773-0.794,1.773-1.773V60.471   c0-0.979-0.796-1.773-1.773-1.773H84.879z M84.879,58.699"/>
	<path fill="#f26439" d="M113.242,58.699c-0.979,0-1.773-0.794-1.773-1.773v-8.863c0-5.864-4.772-10.636-10.636-10.636   c-5.864,0-10.636,4.772-10.636,10.636v8.863c0,0.979-0.794,1.773-1.773,1.773s-1.773-0.794-1.773-1.773v-8.863   c0-7.821,6.36-14.181,14.181-14.181s14.181,6.36,14.181,14.181v8.863C115.015,57.905,114.221,58.699,113.242,58.699L113.242,58.699   z M113.242,58.699"/>
	<path fill="#f26439" d="M100.833,74.062c-2.607,0-4.727-2.12-4.727-4.727s2.12-4.727,4.727-4.727c2.607,0,4.727,2.12,4.727,4.727   S103.44,74.062,100.833,74.062L100.833,74.062z M100.833,68.153c-0.65,0-1.182,0.53-1.182,1.182s0.532,1.182,1.182,1.182   c0.65,0,1.182-0.53,1.182-1.182S101.483,68.153,100.833,68.153L100.833,68.153z M100.833,68.153"/>
	<path fill="#f26439" d="M100.833,81.153c-0.979,0-1.773-0.794-1.773-1.773v-6.5c0-0.979,0.794-1.773,1.773-1.773   c0.979,0,1.773,0.794,1.773,1.773v6.5C102.606,80.359,101.812,81.153,100.833,81.153L100.833,81.153z M100.833,81.153"/>
</g>
</svg>