<?xml version="1.0" encoding="UTF-8"?>
<!-- Generator: Adobe Illustrator 17.0.0, SVG Export Plug-In . SVG Version: 6.00 Build 0)  -->
<!DOCTYPE svg PUBLIC "-//W3C//DTD SVG 1.1//EN" "http://www.w3.org/Graphics/SVG/1.1/DTD/svg11.dtd">
<svg version="1.1" id="Слой_1" xmlns="http://www.w3.org/2000/svg" xmlns:xlink="http://www.w3.org/1999/xlink" x="0px" y="0px" width="480px" height="480px" viewBox="0 0 480 480" enable-background="new 0 0 480 480" xml:space="preserve">
<g>
	<path fill="#F1F4FA" d="M362.418,323.88c44.275-66.192,13.533-194.722-66.363-230.626c-29.143-13.096-83.156-22.106-111.657,3.366   c-15.501,13.854-17.554,32.632-38.158,40.154c-21.681,7.915-33.777-7.633-48.379-0.758   c-25.371,11.946-24.568,115.149-10.927,161.396c2.413,8.181,29.003,95.178,75.411,98.174c27.566,1.779,26.916-56.877,57.306-53.459   c29.432,3.31,33.755,30.6,61.01,34.101C309.662,379.954,349.709,342.881,362.418,323.88z"/>
	<g>
		<g>
			<path fill="#E75C2E" d="M259.367,179.589c-0.3,0.046-0.598,0.098-0.892,0.15c-2.476,0.44-4.99,0.892-7.247,2     c-0.766,0.376-1.533,0.835-2.386,0.873c-2.602,0.115-2.79-3.429-3.482-5.199c-0.622-1.59-1.282-3.164-1.981-4.722     c-2.847-6.349-6.32-12.423-10.365-18.085c-1.083-1.518-2.247-3.045-3.842-4.011c-0.404-0.245-0.858-0.456-1.329-0.421     c-0.486,0.036-0.916,0.33-1.271,0.664c-2.538,2.39-2.047,6.487-1.264,9.883c2.351,10.186,5.586,20.168,9.658,29.796     c1.717,4.059,3.734,8.243,7.332,10.788c0.614,0.434,1.313,0.827,2.065,0.807c0.517-0.014,1.006-0.222,1.48-0.43     c5.48-2.4,10.818-5.122,15.978-8.149c5.105-2.994,9.373-9.448,2.157-13.505C262.604,179.254,260.955,179.345,259.367,179.589z"/>
		</g>
		<g>
			<g>
				<g>
					<g>
						<g>
							<g>
								<g>
									<g>
										<polygon fill="#FFA754" points="228.705,379.295 228.474,395.606 238.14,395.735 238.396,377.651           "/>
									</g>
								</g>
							</g>
							<g>
								<g>
									<g>
										<path fill="#534741" d="M237.28,393.18l-8.406,2.778l-2.506,2.698l0.424,6.393l22.723,1.766l0,0            c1.92-2.796,0.671-6.587-2.533-7.688l-1.057-0.363L237.28,393.18z"/>
									</g>
								</g>
							</g>
						</g>
					</g>
					<g>
						<g>
							<g>
								<g>
									<g>
										<g>
											<g>
												<polygon fill="#FFA754" points="159.051,363.659 152.649,378.663 161.543,382.449 168.64,365.815             "/>
											</g>
										</g>
									</g>
									<g>
										<g>
											<g>
												<path fill="#534741" d="M161.377,382.73c-0.319-0.352-0.69-0.687-1.122-1.002c-1.069-0.781-9.685-5.347-10.425-3.289              c-0.12,0.334-0.082,0.702-0.04,1.055c0.71,5.921,2.099,11.761,4.132,17.368c0.87,2.399,2.189,5.055,4.669,5.653              c1.087,0.262,2.229,0.069,3.319-0.178c1.609-0.365,3.192-0.845,4.733-1.436c0.563-0.216,1.162-0.482,1.454-1.01              c0.585-1.057-0.435-2.308-1.5-2.877c-1.065-0.569-2.366-0.978-2.886-2.068c-0.233-0.489-0.266-1.045-0.296-1.586              C163.199,389.347,163.88,385.494,161.377,382.73z"/>
											</g>
										</g>
									</g>
								</g>
							</g>
							<g>
								<g>
									<path fill="#1F1A4F" d="M219.777,303.707c-3.171,14.501-12.236,24.917-21.92,35.581           c-11.081,12.202-21.505,25.001-31.211,38.323c-4.195-1.749-8.391-3.499-12.586-5.248           c3.507-20.377,13.173-39.073,20.663-58.345c5.205-13.392,9.422-27.554,9.65-42.027c0.114-7.198-1.63-13.78-2.564-20.78           c-1.157-8.672-1.223-17.559-2.268-26.271c-0.351-2.921-0.55-6.376,1.697-8.277c1-0.846,2.318-1.202,3.604-1.451           C232.546,205.974,225.806,276.134,219.777,303.707z"/>
								</g>
							</g>
						</g>
					</g>
					<g>
						<path fill="#1F1A4F" d="M180.914,227.668c-0.025-8.798,1.049-17.278,2.694-23.744c13.57-0.727,28.905,0.775,42.326,3.498        c13.117,2.661,21.298,5.517,21.392,19.74c0.174,26.173,10.404,48.467,14.821,73.624c2.567,14.62-1.868,27.697-6.783,41.237        c-5.624,15.494-10.413,31.29-14.339,47.299c-4.545-0.027-9.091-0.054-13.636-0.081c-4.485-20.184-2.635-41.149-3.016-61.822        c-0.265-14.366-1.736-29.068-7.015-42.546c-5.803-14.816-14.161-8.919-23.752-17.511        C184.283,259.008,180.958,242.864,180.914,227.668z"/>
					</g>
				</g>
				<g>
					<g>
						<path fill="#E75C2E" d="M197.172,134.404c-1.498,1.161-2.815,2.562-4.117,3.95c-1.166,1.243-2.331,2.486-3.497,3.73        c-4.038,4.307-6.033,10.683-7.764,16.186c-9.109,28.957-12.387,68.684-6.471,98.941c22.436,1.938,48.403-3.719,70.79-6.777        c2.177-0.297,4.642-0.785,5.772-2.669c0.685-1.142,0.704-2.548,0.704-3.88c-0.002-19.208-4.062-39.852-7.869-58.787        c-1.607-7.99-3.586-15.913-6.124-23.661c-2.687-8.202-5.716-17.057-12.004-23.262c-6.728-6.639-19.611-9.917-28.034-4.735        C198.077,133.736,197.617,134.059,197.172,134.404z"/>
					</g>
				</g>
			</g>
			<g>
				<g>
					<path fill="#99704A" d="M229.983,105.415c-0.829-3.995-2.076-7.898-3.59-11.572c-3.377-8.193-10.204-14.468-17.79-15.685       c-12.382-1.988-21.044,9.599-23.648,20.703c-2.831,12.068,4.289,26.052,14.456,32.174c0.454,0.273,0.937,0.542,1.464,0.568       c0.709,0.036,1.357-0.365,1.982-0.708c3.54-1.943,7.683-2.334,11.701-2.543c4.858-0.253,9.726-0.296,14.587-0.129       C231.622,120.925,231.557,113.005,229.983,105.415z"/>
				</g>
				<g>
					<g>
						<g>
							<g>
								<g>
									<path fill="#FFA754" d="M204.263,134.319c0.163,0.28,0.375,0.544,0.652,0.79c1.093,0.97,2.556,1.467,3.986,1.585           c1.885,0.156,3.764-0.278,5.597-0.753c2.475-0.642,2.297-2.128,2.521-4.463c0.406-4.234,1.367-5.49,4.267-8.748           c3.198-3.594,4.846-8.386,5.219-13.182c0.454-5.843-0.027-17.079-4.829-21.263c-2.93-2.553-7.023-3.256-10.752-3.506           c-4.938-0.332-9.963,0.897-14.036,3.806c-1.645,1.175-3.182,2.661-4.076,4.628c-1.379,3.033-1.04,6.692-0.666,10.109           c0.345,3.154,0.69,6.308,1.035,9.462c0.397,3.628,1.095,7.793,3.894,9.599c1.486,0.959,3.361,1.067,4.66,2.335           c1.627,1.588,1.68,4.119,1.873,6.249C203.715,132.184,203.694,133.344,204.263,134.319z"/>
								</g>
							</g>
						</g>
					</g>
				</g>
				<g>
					<g>
						<path fill="#A67C52" d="M206.039,95.417c1.957,1.484,3.939,2.952,6.098,4.111c6.38,3.427,13.904,3.952,21.094,3.355        c-2.972-2.773-3.451-7.258-4.765-11.136c-2.744-8.099-10.101-14.387-18.417-15.741c-3.617-0.589-7.493-0.259-10.65,1.629        C188.199,84.333,200.04,90.866,206.039,95.417z"/>
					</g>
					<g>
						<path fill="#A67C52" d="M196.527,98.383c-1.607,4.284-1.904,9.183-1.153,13.745c1.208,7.34,4.741,14.042,8.296,20.546        c-0.226-0.413-5.55-0.98-6.346-1.23c-2.191-0.69-4.302-1.642-6.28-2.824c-3.583-2.141-7.993-5.584-9.75-9.551        c-2.226-5.028-1.958-12.432-0.708-17.684c1.404-5.9,4.451-11.363,8.661-15.66c2.523-2.575,5.705-4.881,9.412-5.246        c2.647-0.26,6.466,0.796,7.392,3.673c1.083,3.364-3.096,5.392-5.076,7.304C198.968,93.396,197.505,95.776,196.527,98.383z"/>
					</g>
				</g>
			</g>
		</g>
		<g>
			<g>
				<path fill="#FFA754" d="M314.996,277.645l4.752,1.829c0,0,2.862-0.753,2.862-0.753c3.025-0.796,6.105,3.823,5.081,6.334      c-0.466,1.143-1.49,1.946-2.47,2.696c-4.137,3.16-5.748,0.299-8.768-2.881l-4.449-2.664L314.996,277.645z"/>
			</g>
			<g>
				<path fill="#58A9C7" d="M300.264,262.798c0.804,1.737,1.743,3.28,2.881,4.469c4.161,4.346,10.838,6.446,15.793,9.748      c-0.465,2.145-1.385,4.201-2.679,5.975c-1.672,2.291-1.911,2.214-4.413,1.359c-4.182-1.429-8.268-3.658-12.147-5.752      c-5.996-3.236-12.762-5.992-17.175-11.414c-4.422-5.432-5.667-13.875-5.087-20.713c0.195-2.296,0.78-4.611,2.087-6.509      c1.307-1.898,3.415-3.329,5.717-3.438c2.64-0.125,5.122,1.485,6.729,3.584c1.607,2.098,2.494,4.646,3.356,7.144      C296.838,251.634,298.028,257.966,300.264,262.798z"/>
			</g>
		</g>
		<g>
			<g>
				<g>
					<g>
						<g>
							<path fill="#333333" d="M286.628,396.832c-0.154,3.548-0.97,6.671,1.071,9.736c0.436,0.655,0.93,1.301,1.608,1.7         c0.4,0.235,0.85,0.376,1.249,0.613c0.354,0.21,0.661,0.492,1.014,0.704c1.483,0.888,3.383,0.363,4.991-0.27         c0.796-0.314,1.723-0.858,1.67-1.712c-0.028-0.458-0.346-0.837-0.628-1.199c-0.95-1.219-1.651-2.631-2.048-4.125         c-0.145-0.546-4.108-7.619-3.834-7.742C291.719,394.536,286.628,396.832,286.628,396.832z"/>
						</g>
					</g>
					<g>
						<g>
							<polygon fill="#1F1A4F" points="305.871,306.67 303.82,350.051 295.208,398.834 285.894,398.912 282.67,351.339          274.935,315.377        "/>
						</g>
					</g>
				</g>
				<g>
					<g>
						<path fill="#333333" d="M244.511,390.336c0.299,0.831,0.72,1.618,1.19,2.366c1.402,2.231,3.267,4.165,5.44,5.638        c0.401,0.272,0.834,0.536,1.316,0.568c1.222,0.082,2.027-1.313,2.165-2.54c0.287-2.552-0.899-4.959-0.998-7.483        c-0.087-2.216,0.167-2.593-1.594-3.942c-0.472-0.362-4.744-3.656-4.54-3.992c-1.811,2.976-4.256,4.532-3.216,8.617        C244.342,389.829,244.421,390.085,244.511,390.336z"/>
					</g>
					<g>
						<path fill="#1F1A4F" d="M254.54,388.228c-0.174,0.202-0.348,0.405-0.522,0.607c-0.152,0.177-0.315,0.361-0.511,0.418        c-0.296,0.085-0.57-0.142-0.805-0.359c-2.402-2.222-4.717-4.594-6.934-7.106c3.191-7.546,6.381-15.093,9.572-22.639        c0.69-1.631,1.391-3.302,1.635-5.1c0.316-2.329-0.163-4.632-0.603-6.862c-1.183-5.995-2.113-12.092-2.785-18.256        c-0.445-4.084-0.762-8.374,0.355-12.376c0.9-3.223,2.658-5.989,3.8-9.1c0.509-1.388,0.935-2.913,1.859-3.902        c1.073-1.147,1.729-0.448,2.729-0.153c1.197,0.353,2.499,0.809,3.991,0.909c3.596,0.24,7.184,0.569,10.762,0.984        c1.366,0.159,5.859-0.231,6.79,0.946c0.942,1.19-0.088,6.697-0.203,8.432c-0.83,12.618-2.06,25.226-3.685,37.784        c-0.115,0.89-0.234,1.789-0.5,2.637c-0.283,0.905-0.724,1.724-1.171,2.523c-1.798,3.218-3.76,6.292-5.868,9.192        c-2.734,3.761-5.707,7.222-8.676,10.677C260.695,381.064,257.618,384.646,254.54,388.228z"/>
					</g>
				</g>
			</g>
			<g>
				<g>
					<g>
						<g>
							<path fill="#FFA754" d="M257.838,212.529c-0.873-0.914-1.511-2.047-1.83-3.27c-0.259-0.994-0.478-2.175,0.201-2.947         c0.502-0.57,1.363-0.705,2.102-0.529c0.68,0.162,1.29,0.559,1.889,0.894c1.218-1.786,0.418-5.252,1.246-7.401         c0.569-1.475,1.591-2.767,2.622-4.016c0.676-0.819,1.377-1.644,2.285-2.24c3.486-2.286,8.052-2.647,12.01-1.6         c8.388,2.218,9.001,11.183,10.931,18.153c1.536,5.548,1.996,11.191-3.915,14.495c-1.514,0.847-3.182,2.15-3.773,3.821         c-0.321,0.907-0.379,1.878-0.407,2.834c-0.021,0.712-0.036,1.46-0.401,2.08c-0.634,1.079-2.053,1.385-3.305,1.582         c-1.525,0.24-3.306,0.405-4.384-0.662c-1.377-1.363-1.195-3.812-2.337-5.381c-0.945-1.297-2.291-1.988-3.438-3.019         c-1.177-1.059-2.261-2.273-3.446-3.346c-1.561-1.414-3.122-3.043-3.141-5.257c-0.007-0.782,0.118-1.657-0.378-2.261         c-0.243-0.295-0.599-0.47-0.929-0.663C258.847,213.452,258.309,213.022,257.838,212.529z"/>
						</g>
						<g>
							<path fill="#A67C52" d="M254.659,195.927c1.224-2.369,3.011-4.477,5.142-6.126c1.678-1.299,3.48-2.513,5.525-3.078         c3.801-1.05,13.963,1.971,15.112-2.862c0.429-1.802,3.187-2.582,4.512-1.276c0.394,0.389,0.652,0.894,1.054,1.275         c0.403,0.381,1.056,0.615,1.537,0.317c0.632-0.392,0.526-1.373,1.076-1.868c0.683-0.615,1.859,0.002,2.161,0.845         c0.174,0.485-0.014,1.078,0.147,1.521c0.123,0.339,0.401,0.445,0.549,0.763c0.335,0.717,0.675,1.314,0.272,2.123         c-0.16,0.322-0.408,0.602-0.531,0.938c-0.236,0.647,0.031,1.342,0.127,2.017c0.212,1.484-0.423,2.941-1.28,4.234         c0.663,1.4,1.187,2.891,1.226,4.351c0.063,2.429-1.478,5.351-2.216,7.655c-0.538-0.634-0.747-1.473-1.038-2.252         c-0.614-1.648-1.66-3.132-3.005-4.264c-0.662-0.557-1.391-1.035-2.012-1.635c-0.094,0.034-0.189,0.068-0.279,0.102         c-0.569,0.22-1.151,0.442-1.761,0.459c-2.072,0.057-4.106,0.448-6.239,0.607c-2.206,0.164-4.461,0.396-6.458,1.348         c-1.997,0.952-3.717,2.768-3.967,4.966c-0.112,0.989,0.022,2.133-0.683,2.835c-2.456,2.446-4.128-2.583-6.234-1.444         c-1.538,0.832-0.125,3.311,0.657,4.248c0.694,0.832,1.601,1.468,2.281,2.31c0.681,0.843,1.116,2.029,0.658,3.01         c-0.108,0.231-0.29,0.458-0.543,0.493c-0.3,0.041-0.558-0.198-0.764-0.421c-2.891-3.127-5.414-6.748-6.413-10.888         C252.41,202.644,253.041,199.057,254.659,195.927z"/>
						</g>
					</g>
				</g>
				<g>
					<path fill="#58A9C7" d="M307.776,300.415c-0.397-5.062-0.977-10.114-1.332-15.194c-0.353-5.06-0.832-10.11-1.481-15.136       c-1.384-10.717-3.674-21.297-10.313-29.991c-1.452-1.901-3.014-3.943-5.078-5.221c-1.4-0.867-3.594-1.035-4.721-2.267       c-0.812-0.888-0.81-2.592-0.549-3.716c-4.028-0.069-8.41-0.007-12.573-0.229c-3.266-0.172-2.615,1.5-3.868,3.682       c-1.345,2.341-4.706,3.503-6.601,5.267c-1.757,1.636-3.033,3.794-4.129,6.007c-1.804,3.642-3.195,7.533-4.03,11.567       c-0.804,3.885-1.089,7.873-1.315,11.847c-0.781,13.762-0.876,27.569-0.285,41.342c0.104,2.417-0.136,5.821,0.751,8.079       c0.904,2.3,3.473,1.976,5.759,2.32c5.339,0.803,10.729,1.21,16.119,1.224c10.78,0.027,21.566-1.522,31.959-4.63       c0.584-0.175,1.203-0.379,1.591-0.882c0.427-0.553,0.473-1.332,0.493-2.053C308.289,308.407,308.09,304.408,307.776,300.415z"/>
				</g>
			</g>
		</g>
		<g>
			<g>
				<path fill="#FFA754" d="M253.592,298.811c0.764,1.492,1.528,2.982,2.364,4.435c0.942,0.421,1.884,0.839,2.828,1.256      c0.741,1.28,1.521,2.541,2.238,3.832c-0.317,0.307-1.761,1.509-2.113,1.242c-0.755-0.573-1.129-1.176-2.098-1.299      c0.017,1.516,0.321,2.833,0.936,4.249c0.536,1.234,1.42,2.463-0.392,2.984c-0.486,0.14-1.08,0.029-1.603-0.155      c-1.322-0.465-2.444-1.248-3.299-2.383c-0.674-0.894-1.107-1.865-2.004-2.578c-0.148-0.117-0.298-0.125-0.41-0.369      c-0.272-0.591-0.134-1.989-0.13-2.559c0.004-0.569-0.09-1.693-0.154-1.886c-0.607-1.827-1.036-3.179-1.489-4.89      C250.041,300.069,251.803,299.397,253.592,298.811z"/>
			</g>
			<g>
				<path fill="#58A9C7" d="M249.354,279.166c0.194,2.646,1.449,5.38,2.286,7.958c1.488,4.584,2.427,8.716,3.21,13.374      c-0.657,0.397-10.331,4.063-10.282,4.165c-3.193-6.586-6.386-13.173-9.579-19.76c-1.141-2.354-2.303-4.78-2.495-7.389      c-0.559-7.569,4.333-15.121,8.247-21.283c4.383-6.903,9.702-13.338,15.991-18.591c1.404-1.173,2.876-1.834,4.442-2.46      c4.005-1.603,7.565,0.566,10.188,3.837c1.616,2.015,2.49,4.754,1.79,7.24c-0.593,2.105-2.189,3.752-3.704,5.329      c-6.823,7.106-13.12,14.715-18.824,22.747C249.531,275.868,249.232,277.499,249.354,279.166z"/>
			</g>
		</g>
		<g>
			<g>
				<path fill="#FFA754" d="M258.233,235.773c0.054,0.097-0.033,0.155-0.042,0.601c-0.016,0.811-0.301,0.915,0.049,1.693      c0.701,1.558,1.583,1.672,3.107,2.167c0.19,0.061,0.388,0.124,0.585,0.094c0.216-0.033,0.398-0.171,0.582-0.288      c0.639-0.407,1.411-0.601,2.166-0.544c0.186,0.014,0.388,0.052,0.508,0.194c0.098,0.116,0.12,0.276,0.138,0.426      c0.188,1.573,0.096,2.937-0.504,4.437c-0.343,0.782-1.159,1.409-1.829,1.937c-1.4,1.101-3.291,2.179-5.141,1.785      c-1.654-0.352-3.334-0.796-4.716-1.771c-0.943-0.665-1.706-1.55-2.459-2.425c-1.426-1.657-2.323-3.645-3.591-5.286      c-1.23-1.593-3.781-2.409-5.503-3.451c-4.366-2.642-8.462-5.729-12.202-9.201c-0.116-0.108-0.24-0.231-0.254-0.389      c-0.017-0.184,0.119-0.342,0.246-0.477c1.818-1.922,3.636-3.845,5.454-5.767c3.65,2.468,7.175,5.121,10.558,7.944      c2.63,2.195,5.872,6.706,9.283,7.146c0.828,0.107,2.654,0.264,3.277,0.875C258.12,235.645,258.201,235.716,258.233,235.773z"/>
			</g>
			<g>
				<path fill="#E75C2E" d="M214.725,159.613l13.466,40.373l12.862,17.127l-10.506,14.704l-26.077-20.055l-12.721-45.079      c-1.665-5.9,1.376-12.108,7.059-14.409l0,0C205.238,149.67,212.53,153.033,214.725,159.613z"/>
			</g>
		</g>
		<g>
			<g>
				<path fill="#FFA754" d="M270.328,181.07c1.176,0.205,2.325,0.585,3.232,1.465c1.431,1.388,1.859,3.652,1.857,5.697      c-0.001,1.27-0.148,2.582-0.776,3.591c-1.836,2.954-4.301-0.407-6.62-0.627c-0.809-0.077-1.643,0.006-2.419-0.234      c-0.89-0.275-1.596-0.941-2.378-1.448c-1.634-1.059-3.758-0.468-5.259-2.008C253.226,182.645,267.838,180.637,270.328,181.07z"/>
			</g>
		</g>
	</g>
</g>
</svg>