<?xml version="1.0" encoding="UTF-8"?>
<!-- Generator: Adobe Illustrator 17.0.0, SVG Export Plug-In . SVG Version: 6.00 Build 0)  -->
<!DOCTYPE svg PUBLIC "-//W3C//DTD SVG 1.1//EN" "http://www.w3.org/Graphics/SVG/1.1/DTD/svg11.dtd">
<svg version="1.1" id="Слой_1" xmlns="http://www.w3.org/2000/svg" xmlns:xlink="http://www.w3.org/1999/xlink" x="0px" y="0px" width="480px" height="480px" viewBox="0 0 480 480" enable-background="new 0 0 480 480" xml:space="preserve">
<g>
	<path fill="#F1F4FA" d="M92.154,301.031c29.49,73.973,152.838,121.41,227.67,75.884c27.296-16.606,65.305-56.025,60.447-93.94   c-2.642-20.621-16.958-32.946-11.492-54.188c5.752-22.353,25.417-23.519,28.018-39.448c4.519-27.676-81.001-85.45-126.845-100.392   c-8.109-2.643-94.873-29.985-123.619,6.57c-17.075,21.714,31.641,54.391,11.617,77.504c-19.393,22.385-44.335,10.497-62.653,30.979   C75.805,225.797,83.688,279.797,92.154,301.031z"/>
	<g>
		<g>
			<g>
				<polygon fill="#6EA7BF" points="205.485,285.659 209.412,356.126 151.861,359.332 145.413,243.6 202.963,240.394       203.977,258.59 231.691,228.086 171.54,194.478 244.401,156.724 214.866,123.408 108.884,193.107 118.538,366.363       226.583,360.343 229.598,310.292     "/>
			</g>
			<g>
				<path fill="#E75C2E" d="M212.836,87.451c-2.553,1.705-5.061,3.491-7.59,5.234c-25.088,17.29-50.176,34.58-75.264,51.87      c-20.354,14.027-40.957,27.73-61.089,42.101c-0.334,0.238-0.675,0.465-1.012,0.698c-5.103,3.517-6.563,11.076-3.165,16.419      c3.409,5.361,10.623,6.914,15.748,3.381c16.509-11.378,33.019-22.756,49.528-34.133c26.189-18.049,52.378-36.098,78.567-54.146      c0.474-0.326,0.947-0.653,1.421-0.979l-8.113-9.151L212.836,87.451z"/>
			</g>
			<g>
				<polygon fill="#FFFDF2" points="145.413,243.6 151.861,359.332 209.412,356.126 205.485,285.659 191.948,271.83 203.977,258.59       202.963,240.394     "/>
			</g>
		</g>
		<g>
			<g>
				<path fill="#E75C2E" d="M411.811,188.018c-16.983-11.212-33.965-22.424-50.948-33.636      c-27.463-18.131-54.925-36.261-82.388-54.392c-6.636-4.381-13.185-8.97-19.934-13.161c-1.372-0.852-2.765-1.437-4.17-1.77      l-14.228,23.16l4.009,5.325c2.265-1.207,4.531-2.413,6.796-3.62c15.395,10.164,30.791,20.328,46.186,30.492      c27.678,18.273,55.356,36.546,83.033,54.818c6.336,4.183,12.672,8.366,19.008,12.549c5.171,3.414,12.292,2.077,15.757-3.339      C418.296,199.185,416.999,191.443,411.811,188.018z"/>
			</g>
			<g>
				<g>
					<path fill="#6EA7BF" d="M209.677,191.361l51.456,34.457l-53.476,46.459l41.368,37.754l-22.442,50.313l129.15,6.26       l10.117-173.23l-113.993-75.405l-6.116-2.312l33.989,45.154L209.677,191.361z M284.243,307.364l-31.3-1.828l1.627-27.864       l31.3,1.828L284.243,307.364z M297.769,241.933l31.3,1.828l-1.627,27.865l-31.3-1.828L297.769,241.933z M295.542,280.064       l31.3,1.828l-1.627,27.864l-31.3-1.828L295.542,280.064z M286.47,269.233l-31.3-1.828l1.627-27.865l31.3,1.828L286.47,269.233z       "/>
				</g>
				<g>
					
						<rect x="255.958" y="240.431" transform="matrix(-0.9983 -0.0583 0.0583 -0.9983 527.9739 524.1784)" fill="#FFFDF2" width="31.353" height="27.912"/>
				</g>
				<g>
					
						<rect x="296.929" y="242.824" transform="matrix(0.9983 0.0583 -0.0583 0.9983 15.5036 -17.7899)" fill="#FFFDF2" width="31.353" height="27.912"/>
				</g>
				<g>
					
						<rect x="253.73" y="278.562" transform="matrix(-0.9983 -0.0583 0.0583 -0.9983 521.3004 600.2455)" fill="#FFFDF2" width="31.353" height="27.912"/>
				</g>
				<g>
					
						<rect x="294.702" y="280.955" transform="matrix(0.9983 0.0583 -0.0583 0.9983 17.7226 -17.5947)" fill="#FFFDF2" width="31.353" height="27.912"/>
				</g>
			</g>
		</g>
	</g>
</g>
</svg>