<?xml version="1.0" encoding="UTF-8"?>
<!-- Generator: Adobe Illustrator 17.0.0, SVG Export Plug-In . SVG Version: 6.00 Build 0)  -->
<!DOCTYPE svg PUBLIC "-//W3C//DTD SVG 1.1//EN" "http://www.w3.org/Graphics/SVG/1.1/DTD/svg11.dtd">
<svg version="1.1" id="Слой_1" xmlns="http://www.w3.org/2000/svg" xmlns:xlink="http://www.w3.org/1999/xlink" x="0px" y="0px" width="480px" height="480px" viewBox="0 0 480 480" enable-background="new 0 0 480 480" xml:space="preserve">
<g>
	<path fill="#F1F4FA" d="M306.231,85.133c-23.88-1.46-47.373,3.748-64.786,18.883c-9.929-4.742-20.674-7.356-30.926-9.343   c-47.624-9.232-101.841,40.719-123.67,92.259c-36.333,85.784,10.908,197.165,68.546,205.719   c26.65,3.955,60.998-4.774,81.423-26.241c8.387,3.858,17.092,6.7,25.402,8.25c49.471,9.232,106.076-23.248,128.752-74.788   C428.713,214.087,366.6,88.824,306.231,85.133z"/>
	<g>
		<g>
			<path fill="#805334" d="M303.362,148.933c-21.93-12.255-55.168-12.654-65.509-12.454c-10.341-0.2-43.579,0.198-65.509,12.454     c-17.38,9.71-41.128,4.17-56.546-7.059c1.604,10.165,10.402,18.138,20.234,21.193c18.738,5.821,37.48-1.951,55.109-7.852     c28.43-9.516,62.804-9.96,91.422-0.541c18.411,6.059,37.508,14.477,57.108,8.394c9.834-3.053,18.634-11.027,20.238-21.194     C344.49,153.103,320.742,158.643,303.362,148.933z"/>
			<path fill="#805334" d="M251.076,314.108h-20.84V123.421c0-5.52,4.475-9.995,9.995-9.995h0.85c5.52,0,9.995,4.475,9.995,9.995     V314.108z"/>
			<circle fill="#E75C2E" cx="240.656" cy="140.441" r="6.175"/>
			<circle fill="#E75C2E" cx="116.002" cy="142.756" r="6.175"/>
			<circle fill="#E75C2E" cx="357.593" cy="142.756" r="6.175"/>
			<g>
				<path fill="#F9AD5B" d="M130.667,159.737c-2.131,0-3.859,1.728-3.859,3.859c0,2.131,1.728,3.859,3.859,3.859      s3.859-1.728,3.859-3.859C134.526,161.465,132.798,159.737,130.667,159.737z M130.667,166.491c-1.599,0-2.894-1.296-2.894-2.894      c0-1.599,1.296-2.894,2.894-2.894s2.894,1.296,2.894,2.894C133.561,165.195,132.266,166.491,130.667,166.491z"/>
				<g>
					<g>
						
							<line fill="none" stroke="#8B5A39" stroke-width="2.2683" stroke-linecap="round" stroke-linejoin="round" stroke-miterlimit="10" x1="127.966" y1="166.298" x2="99.793" y2="252.36"/>
						
							<line fill="none" stroke="#8B5A39" stroke-width="2.2683" stroke-linecap="round" stroke-linejoin="round" stroke-miterlimit="10" x1="130.667" y1="167.456" x2="130.667" y2="252.36"/>
						
							<line fill="none" stroke="#8B5A39" stroke-width="2.2683" stroke-linecap="round" stroke-linejoin="round" stroke-miterlimit="10" x1="133.421" y1="166.298" x2="158.454" y2="252.36"/>
					</g>
					<path fill="#E69641" d="M163.085,252.36H95.162c0,2.381,0.247,4.704,0.714,6.947h66.496       C162.838,257.064,163.085,254.741,163.085,252.36z"/>
					<path fill="#E75C2E" d="M129.123,286.322c16.375,0,30.042-11.591,33.248-27.015H95.875       C99.082,274.731,112.748,286.322,129.123,286.322z"/>
					<rect x="92.074" y="252.36" fill="#E75C2E" width="74.098" height="3.859"/>
				</g>
			</g>
			<g>
				<path fill="#F9AD5B" d="M352.961,155.878c-2.131,0-3.859,1.728-3.859,3.859c0,2.131,1.728,3.859,3.859,3.859      c2.131,0,3.859-1.728,3.859-3.859C356.821,157.606,355.093,155.878,352.961,155.878z M352.961,162.632      c-1.599,0-2.894-1.296-2.894-2.894s1.296-2.894,2.894-2.894s2.894,1.296,2.894,2.894S354.56,162.632,352.961,162.632z"/>
				<g>
					<g>
						
							<line fill="none" stroke="#8B5A39" stroke-width="2.2683" stroke-linecap="round" stroke-linejoin="round" stroke-miterlimit="10" x1="350.26" y1="162.439" x2="322.087" y2="248.501"/>
						
							<line fill="none" stroke="#8B5A39" stroke-width="2.2683" stroke-linecap="round" stroke-linejoin="round" stroke-miterlimit="10" x1="352.961" y1="163.597" x2="352.961" y2="248.501"/>
						
							<line fill="none" stroke="#8B5A39" stroke-width="2.2683" stroke-linecap="round" stroke-linejoin="round" stroke-miterlimit="10" x1="355.715" y1="162.439" x2="380.748" y2="248.501"/>
					</g>
					<path fill="#E69641" d="M385.379,248.501h-67.923c0,2.381,0.247,4.704,0.714,6.947h66.496       C385.132,253.205,385.379,250.882,385.379,248.501z"/>
					<path fill="#E75C2E" d="M351.418,282.462c16.375,0,30.042-11.591,33.248-27.015H318.17       C321.376,270.872,335.042,282.462,351.418,282.462z"/>
					<rect x="314.369" y="248.501" fill="#E75C2E" width="74.098" height="3.859"/>
				</g>
			</g>
		</g>
		<path fill="#805334" d="M301.247,310.527H179.294v-0.567c0-3.523,2.856-6.38,6.38-6.38h109.194c3.523,0,6.38,2.856,6.38,6.38    V310.527z"/>
		<path fill="#805334" d="M322.087,334.948H154.595v-1.038c0-13.494,10.939-24.433,24.433-24.433h118.627    c13.494,0,24.433,10.939,24.433,24.433V334.948z"/>
	</g>
</g>
</svg>