<?xml version="1.0" encoding="UTF-8"?>
<!-- Generator: Adobe Illustrator 17.0.0, SVG Export Plug-In . SVG Version: 6.00 Build 0)  -->
<!DOCTYPE svg PUBLIC "-//W3C//DTD SVG 1.1//EN" "http://www.w3.org/Graphics/SVG/1.1/DTD/svg11.dtd">
<svg version="1.1" id="Слой_1" xmlns="http://www.w3.org/2000/svg" xmlns:xlink="http://www.w3.org/1999/xlink" x="0px" y="0px" width="480px" height="480px" viewBox="0 0 480 480" enable-background="new 0 0 480 480" xml:space="preserve">
<g>
	<path fill="#F1F4FA" d="M381.569,196.062c-3.812-42.965-48.731-87.024-94.569-105.73c-86.255-35.201-197.005,13.501-204.799,71.247   c-2.525,18.71,1.227,41.12,11.177,59.788c-11.687,14.413-20.182,33.44-23.168,50.698c-8.58,49.589,24.642,105.761,76.476,127.757   c62.671,26.594,145.465,0.222,187.194-39.353c4.999,2.101,10.082,3.152,16.684,2.701c29.44-2.011,54.84-41.041,60.495-73.718   C416.603,257.402,404.684,222.607,381.569,196.062z"/>
	<g>
		<polygon fill="#1F1A4F" points="194.363,128.039 195.646,128.495 218.901,136.773 236.102,169.156 223.889,182.898     208.47,176.822   "/>
		<g>
			<polygon fill="#1F1A4F" points="142.191,236.958 142.971,306.531 158.092,379.52 170.253,378.084 168.626,307.027      179.649,229.535    "/>
		</g>
		<g>
			<polygon fill="#1F1A4F" points="166.372,225.897 185.102,301.445 210.028,379.3 221.396,377.989 212.772,298.001      212.641,223.854    "/>
		</g>
		<g>
			<g>
				<path fill="#1F1A4F" d="M229.001,239.531c0.672,7.12,1.191,16.745-1.227,17.279c-0.453,0.1-0.911-0.121-1.33-0.336      c-4.42-2.27-7.683-5.687-12.036-7.874c-4.563-2.293-9.662-3.311-14.634-3.919c-7.438-0.953-14.995-1.323-22.47-0.911      c-5.876,0.324-11.73,1.325-17.532,2.306c-4.827,0.817-9.23,2.77-14.211,2.755c-5.105-0.015-10.235-1.384-14.797-4.048      c-0.167-0.098-0.344-0.209-0.425-0.4c-0.088-0.209-0.036-0.451,0.018-0.671c0.798-3.262,1.308-6.47,2.994-9.248      c1.882-3.102,3.097-6.955,4.366-10.42c2.645-7.222,5.08-14.766,6.738-22.373c2.589-10.365,5.674-20.504,8.148-30.894      c1.715-7.202,3.224-14.514,5.767-21.41c1.991-5.4,5.664-13.345,10.605-16.026c1.672-0.908,3.576-1.12,5.435-1.32      c5.64-0.605,11.28-1.209,16.919-1.814c2.056-0.22,4.196-0.429,6.146,0.382c2.922,1.216,4.761,4.411,6.384,7.398      c7.275,13.397,12.369,28.046,15.75,43.293c1.765,7.961,3.444,15.945,4.886,23.976c1.61,8.963,2.93,17.988,3.744,27.066      C228.328,233.33,228.682,236.148,229.001,239.531z"/>
			</g>
		</g>
		<g>
			<g>
				<path fill="#FFFFFF" d="M185.282,162.105c0.027,3.219,0.723,6.391,1.417,9.536c4.223,19.155,13.694,54.587,17.917,73.742      c-15.19,1.003-37.88,1.684-53.07,2.686c0.007-7.296,2.268-30.546,2.275-37.842c0.005-4.677,0.011-9.371,0.651-14.008      c1.033-7.48,3.693-14.647,6.334-21.747c4.881-13.118,9.762-26.236,14.644-39.354c0.261-0.702,0.537-1.427,1.075-1.958      c0.644-0.636,1.569-0.902,2.456-1.126c4.283-1.078,9.135-2.082,13.544-1.768c1.387,3.888-2.119,11.09-3.333,14.894      C187.423,150.696,185.233,156.224,185.282,162.105z"/>
			</g>
		</g>
		<g>
			<polygon fill="#3A3029" points="159.557,379.196 151.99,384.13 153.306,388.736 170.413,385.775 169.607,378.179    "/>
		</g>
		<g>
			<polygon fill="#3A3029" points="211.613,377.741 204.429,383.549 206.522,388.186 221.537,383.934 220.312,377.962    "/>
		</g>
		<g>
			<g>
				<g>
					<g>
						<path fill="#FFA754" d="M181.094,136.677c2.791-0.477,5.581-0.954,8.372-1.43c-0.131-2.254-0.443-4.497-0.932-6.701        c0.059,0.268,4.25-2.668,4.58-3.255c0.948-1.691,0.753-4.304,0.996-6.204c0.518-4.046,0.912-8.579-1.598-11.794        c-2.6-3.33-7.395-3.976-11.599-3.555c-5.278,0.528-10.958,2.804-13.092,7.66c-1.927,4.386,1.916,10.009,3.341,14.209        c0.703,2.071,1.672,4.413,3.76,5.061c1.109,0.344,2.375,0.131,3.396,0.684C180.119,132.326,180.068,134.905,181.094,136.677z"/>
					</g>
				</g>
				<g>
					<g>
						<path fill="#534741" d="M158.547,104.651c-0.681-2.868-1.361-5.736-2.042-8.605c-0.253-1.065-0.507-2.172-0.287-3.244        c0.364-1.784,1.966-3.072,3.65-3.765c1.684-0.693,3.518-0.942,5.233-1.554c1.83-0.653,3.555-1.723,5.492-1.882        c3.683-0.302,6.917,2.741,10.611,2.861c5.114,0.167,9.427-2.712,13.2,2.805c0.693,1.014,1.005,2.242,1.637,3.295        c0.816,1.36,2.112,2.351,3.177,3.527c4.681,5.171,4.488,13.941,0.292,19.356c-2.035,2.625-2.721,4.854-5.835,6.007        c1.092-3.173-2.354-14.828-6.547-15.655c-1.11-0.218-4.146,1.49-5.305,1.812c-2.567,0.713-5.056,1.454-7.387,2.784        c-3.46,1.974-7.288,3.547-11.202,4.341c-0.501,0.102-1.063,0.192-1.487-0.093c-0.399-0.268-0.539-0.78-0.65-1.248        C160.246,111.813,159.396,108.232,158.547,104.651z"/>
					</g>
				</g>
			</g>
		</g>
		<polygon fill="#1F1A4F" points="236.102,169.156 197.673,128.448 188.954,133.774 208.47,176.822 223.889,182.898   "/>
		<path fill="#FFA754" d="M196.078,129.422c0.748-0.937,2.04-7.517,2.04-7.517l-7.064-6.328l-4.409,3.445l2.762,8.233l-1.492,0.514    c0,0,2.814,4.982,2.799,4.929C190.7,132.645,196.078,129.422,196.078,129.422z"/>
		<polygon fill="#1F1A4F" points="168.474,136.577 157.245,185.444 141.026,189.187 136.035,172.552 159.325,133.458   "/>
		<polygon fill="#FFA754" points="161.404,134.29 158.493,127.636 164.731,120.15 168.474,122.229 167.643,130.131 169.514,130.893     167.643,136.369   "/>
	</g>
	<g>
		<g>
			<path fill="#A67C52" d="M296.612,116.274c-0.122-0.081-0.24-0.168-0.365-0.245l0.352,0.2c0.232-0.353,0.483-0.694,0.746-1.024     l0,0l0,0c2.052-2.57,5.012-4.41,8.234-5.077c2.855,2.733,4.275,6.888,3.69,10.797c-0.245,1.634-0.841,3.205-1.706,4.612     l0.002,0.003c0,0-0.014,0.02-0.034,0.05c-0.077,0.125-0.158,0.247-0.24,0.369c-1.269,2.004-6.523,11.017-5.897,21.953     c0.711,12.425-3.254,15.21-3.254,15.21s-11.381-0.167-17.389-3.89C274.893,155.601,286.909,130.577,296.612,116.274z"/>
		</g>
		<polygon fill="#E75C2E" points="291.516,145.276 304.992,152.272 323.213,186.656 327.936,195.009 314.973,202.595   "/>
		<g>
			<g>
				<g>
					<g>
						<polygon fill="#3A3029" points="258.914,396.676 258.461,401.148 266.586,406.724 271.328,402.804 267.492,397.78         259.367,392.203       "/>
					</g>
				</g>
				<g>
					<g>
						<polygon fill="#1F1A4F" points="259.164,261.215 257.788,274.797 269.972,321.461 258.658,396.448 266.986,399.317         288.946,326.108 292.431,304.811 292.304,259.724       "/>
					</g>
				</g>
			</g>
			<g>
				<g>
					<g>
						<polygon fill="#1F1A4F" points="325.898,272.598 308.38,398.248 300.418,398.248 298.985,317.707 284.494,261.175       "/>
					</g>
				</g>
				<g>
					<g>
						<polygon fill="#3A3029" points="300.417,395.984 300.417,400.497 309.027,405.01 313.333,400.497 309.027,395.984       "/>
					</g>
				</g>
			</g>
			<g>
				<g>
					<path fill="#E75C2E" d="M288.81,142.87l0.12-0.154c-6.099,0.25-12.558,1.556-17.511,1.557       c-21.324,15.07-9.549,52.163-14.079,78.385c-4.811,27.851-10.227,55.596-16.244,83.211c-0.341,1.564,23.889,0.775,26.174,0.813       c23.31,0.393,53.823,0.313,76.315-6.735c-14.041-37.694-19.365-78.187-30.17-116.942       C303.635,151.728,288.81,142.87,288.81,142.87z"/>
				</g>
			</g>
			<g>
				<polygon fill="#E75C2E" points="289.04,142.669 300.417,176.394 315.016,305.346 292.431,307.029 275.109,307.029       281.445,191.187 278.866,143.692     "/>
			</g>
		</g>
		<polygon fill="#FFA754" points="307.616,127.578 309.401,131.03 309.39,136.522 304.453,138.894 299.012,126.933 302.352,123.146       "/>
		<polygon fill="#E75C2E" points="300.99,134.177 312.352,180.906 318.646,194.473 327.936,195.009 332.225,178.456     310.741,133.314   "/>
		<g>
			<g>
				<g>
					<path fill="#FFA754" d="M305.591,124.095c1.418-14.623-16.594-17.279-24.834-7.506c-4.686,5.558-4.362,15.454-0.007,21.542       c-0.237,1.262-1.064,4.693-0.366,5.787c0.757,1.185,4.203,1.271,5.542,1.347c0.371,0.021,0.764,0.027,1.089-0.152       c0.408-0.224,0.708-1.055,0.987-1.992c0.939,0.206,1.934,0.302,2.985,0.266c4.413-0.148,8.416-3.025,10.808-6.736       C304.186,132.941,305.165,128.49,305.591,124.095z"/>
				</g>
			</g>
			<g>
				<g>
					<path fill="#A67C52" d="M266.337,164.638c3.317,0.886,6.709,1.494,10.129,1.805c-2.351-0.214,3.856-24.237,4.258-25.907       c1.152-4.789,2.649-11.635,6.295-14.946c3.646-3.311,8.127-3.541,13.545-5.902c1.878-0.818,3.676-2.073,4.642-3.879       c1.068-1.998,0.872-4.493-0.047-6.564c-1.415-3.187-3.607-5.206-6.847-6.236c-6.542-2.079-14.325-1.487-20.211,2.174       c-7.109,4.423-11.202,12.751-13.731,20.485c-0.679,2.075-1.238,4.2-2.171,6.175c-0.998,2.112-2.4,4.002-3.716,5.933       c-1.943,2.851-3.737,5.87-4.622,9.205c-0.885,3.335-0.777,7.05,0.931,10.048C257.176,161.21,261.883,163.448,266.337,164.638z"/>
				</g>
			</g>
		</g>
		<polygon fill="#FFA754" points="259.711,253.009 260.974,256.684 264.952,260.47 270.078,258.539 265.189,246.343     260.144,246.142   "/>
	</g>
</g>
</svg>