<?xml version="1.0" encoding="UTF-8"?>
<!-- Generator: Adobe Illustrator 17.0.0, SVG Export Plug-In . SVG Version: 6.00 Build 0)  -->
<!DOCTYPE svg PUBLIC "-//W3C//DTD SVG 1.1//EN" "http://www.w3.org/Graphics/SVG/1.1/DTD/svg11.dtd">
<svg version="1.1" id="Слой_1" xmlns="http://www.w3.org/2000/svg" xmlns:xlink="http://www.w3.org/1999/xlink" x="0px" y="0px" width="480px" height="480px" viewBox="0 0 480 480" enable-background="new 0 0 480 480" xml:space="preserve">
<g>
	<path fill="#F1F4FA" d="M192.585,397.391C116.261,374.667,57.933,256.08,96.55,177.46c14.086-28.677,49.93-70.075,88.129-68.644   c20.775,0.779,34.337,13.929,55.001,6.576c21.745-7.737,21.14-27.427,36.771-31.449c27.158-6.988,92.383,72.995,111.383,117.311   c3.361,7.839,32.946,86.87,4.564,123.71C344.513,387.118,214.494,403.914,192.585,397.391z"/>
	<g>
		<g>
			<g>
				<g>
					<g>
						<path fill="#FFA754" d="M232.72,192.031c-0.141,0.072-0.28,0.141-0.38,0.252c-0.933,1.031-0.965,1.957-1.738,3.241        c-0.345,0.573-1.863,0.514-1.135,1.918c0.268,0.518,1.076,1.389,1.499,2.44c1.105,2.743,0.961,4.389-0.798,6.931        c-3.563,5.147-7.126,10.295-10.689,15.442c-0.132,0.191-0.282,0.395-0.505,0.459c-0.221,0.064-0.454-0.028-0.663-0.125        c-2.137-1.001-3.412-2.584-4.448-4.64c-1.524-3.025-2.717-6.245-4.655-9.055c-0.612-0.888-1.148-1.963-2.114-2.411        c-2.724-1.261-6.362,0.439-7.221,3.355c-1.632,5.538,3.435,11.297,6.747,15.409c3.134,3.891,7.273,6.349,12.068,7.639        c0.592,0.159,0.995,0.19,1.565,0.034c0.57-0.157,0.917-0.415,1.437-0.845c4.515-3.732,8.42-8.15,11.368-13.222        c3.162-5.441,4.263-11.481,7.211-17.102c1.169-2.23,2.253-4.771,0.328-6.852c-1.658-1.793-4.213-4.027-6.658-3.351        C233.517,191.663,233.108,191.834,232.72,192.031z"/>
					</g>
				</g>
			</g>
			<g>
				<g>
					<path fill="#FFBEB8" d="M190.959,207.186c0.68,1.376,1.293,2.793,1.968,4.14c1.879,3.756,4.521,6.668,6.794,10.15       c0.064,0.098,0.134,0.203,0.241,0.251c0.118,0.053,0.255,0.028,0.379-0.009c0.963-0.288,1.612-1.181,2.072-2.076       c0.46-0.894,0.822-1.868,1.527-2.585c1.645-1.673,4.385-1.321,6.62-2.034c1.249-0.399,2.378-1.164,3.21-2.177       c0.269-0.327,0.514-0.696,0.577-1.115c0.188-1.237-0.384-2.212,0.766-3.181c0.289-0.243,0.636-0.423,0.872-0.718       c0.277-0.346,0.364-0.804,0.411-1.244c0.491-4.613-2.813-5.03-5.812-7.544c-6.405-5.369-15.57-5.465-23.209-2.867       c-1.21,0.411-2.589,1.16-2.646,2.436c-0.056,1.239,1.159,2.09,2.114,2.88C188.694,203.028,189.907,205.059,190.959,207.186z"/>
				</g>
			</g>
		</g>
		<g>
			<g>
				<g>
					<g>
						<g>
							<polygon fill="#FFA754" points="171.855,294.098 172.379,308.06 174.215,346.362 180.974,345.671 184.622,309.177          188.369,294.601        "/>
						</g>
					</g>
					<g>
						<g>
							<path fill="#363535" d="M173.258,345.243c0.092,1.114,0.078,2.379-0.596,3.126c-0.737,0.816-1.993,0.909-2.56,1.988         c-0.237,0.451-0.267,0.982-0.242,1.491c0.019,0.381,0.071,0.776,0.277,1.097c0.342,0.53,1.009,0.728,1.619,0.887         c0.948,0.246,1.908,0.495,2.887,0.486c1.686-0.015,3.23-0.788,4.628-1.664c1.185-0.742,2.396-1.301,2.537-2.904         c0.042-0.48-0.069-0.957-0.154-1.431c-0.224-1.243-0.273-2.517-0.145-3.773c-2.791-0.157-5.582-0.314-8.373-0.47         C173.172,344.417,173.223,344.819,173.258,345.243z"/>
						</g>
					</g>
				</g>
				<g>
					<g>
						<g>
							<polygon fill="#FFA754" points="205.722,292.719 205.087,308.178 199.082,346.288 192.407,345.023 191.282,308.736          189.393,293.508        "/>
						</g>
					</g>
					<g>
						<g>
							<path fill="#363535" d="M199.775,345.42c-0.267,1.085-0.453,2.337,0.095,3.181c0.599,0.922,1.824,1.213,2.213,2.367         c0.163,0.483,0.109,1.012,0.003,1.511c-0.079,0.373-0.193,0.755-0.447,1.039c-0.421,0.469-1.111,0.56-1.739,0.62         c-0.975,0.094-1.963,0.187-2.928,0.023c-1.662-0.282-3.065-1.289-4.307-2.375c-1.052-0.92-2.16-1.663-2.046-3.268         c0.034-0.48,0.219-0.934,0.378-1.389c0.417-1.192,0.667-2.442,0.74-3.703c2.781,0.286,5.561,0.573,8.342,0.859         C199.99,344.619,199.877,345.007,199.775,345.42z"/>
						</g>
					</g>
				</g>
				<g>
					<g>
						<path fill="#FFBEB8" d="M177.606,194.717c-1.002,0.963-1.278,2.44-1.563,3.748c-0.372,1.704-0.754,3.406-1.149,5.105        c-0.777,3.343-1.599,6.675-2.468,9.995c-1.683,6.424-3.543,12.802-5.598,19.117c-3.846,11.823-8.371,23.433-13.695,34.671        c-1.582,3.34-3.236,6.647-4.963,9.915c-0.859,1.626-1.737,3.243-2.634,4.849c-0.27,0.483-2.242,4.611-2.622,4.575        c3.523,0.33,5.923,4.148,8.564,6.801c2.507,2.518,5.657,4.207,8.863,5.322c13.783,4.794,28.254-0.581,42.3,1.616        c3.453,0.54,6.868,1.542,10.334,1.481c6.958-0.122,13.651-2.592,20.066-4.95c0.422-0.155,6.031-1.931,5.855-2.38        c-4.791-12.238-9.582-24.476-14.372-36.713c-2.599-6.64-5.202-13.289-7.226-20.111c-2.295-7.735-3.834-15.653-5.17-23.587        c-0.663-3.937-1.013-7.947-2.111-11.799c-0.555-1.947-1.306-3.841-2.341-5.585c-0.921-1.552-1.947-3.609-3.605-4.45        c-0.925-0.469-1.947-0.701-2.944-0.986c-3.902-1.116-7.757-3.118-11.783-2.607c-3.525,0.447-6.483,2.742-9.562,4.515        c-0.748,0.431-1.52,0.84-2.149,1.431C177.624,194.699,177.615,194.708,177.606,194.717z"/>
					</g>
				</g>
			</g>
			<g>
				<g id="XMLID_43_">
					<path fill="#765F44" d="M168.242,239.492c2.542,2.034,2.954,5.743,0.92,8.285l0,0c-2.034,2.542-5.744,2.954-8.286,0.92       l-6.671-5.337c-2.542-2.034-2.954-5.744-0.92-8.286l0,0c2.034-2.542,5.743-2.954,8.286-0.92L168.242,239.492z"/>
				</g>
				<g id="XMLID_42_">
					<path fill="#765F44" d="M153.398,254.185c3.923-0.436,7.456,2.391,7.891,6.314l0,0c0.436,3.923-2.391,7.456-6.314,7.891       l-10.294,1.143c-3.923,0.436-7.456-2.391-7.891-6.314l0,0c-0.436-3.923,2.391-7.456,6.314-7.891L153.398,254.185z"/>
				</g>
				<g id="XMLID_41_">
					<path fill="#765F44" d="M178.128,273.972c-0.436-3.923-3.968-6.75-7.891-6.314l0,0c-3.923,0.436-6.75,3.968-6.314,7.891       l1.143,10.294c0.436,3.923,3.968,6.75,7.891,6.314l0,0c3.923-0.435,6.75-3.968,6.314-7.891L178.128,273.972z"/>
				</g>
				<g id="XMLID_40_">
					<path fill="#765F44" d="M196.309,261.95c2.542,2.034,2.954,5.743,0.92,8.285l0,0c-2.034,2.542-5.743,2.954-8.285,0.92       l-6.671-5.337c-2.542-2.034-2.954-5.744-0.92-8.286l0,0c2.034-2.542,5.743-2.954,8.286-0.92L196.309,261.95z"/>
				</g>
				<g id="XMLID_39_">
					<path fill="#765F44" d="M179.649,272.956c-5.655,7.067-15.968,8.212-23.036,2.557l0,0c-7.067-5.655-8.212-15.968-2.557-23.036       l3.741-4.676c5.655-7.067,15.968-8.212,23.036-2.557l0,0c7.067,5.655,8.212,15.968,2.557,23.036L179.649,272.956z"/>
				</g>
				<g id="XMLID_26_">
					<g id="XMLID_38_">
						<circle fill="#765F44" cx="186.755" cy="237.843" r="17.697"/>
					</g>
					<g id="XMLID_37_">
						<path fill="#EADBC6" d="M186.098,238.665c-4.943-3.955-11.356-4.828-16.92-2.88c-0.68,5.856,1.579,11.921,6.521,15.876        c4.943,3.955,11.356,4.828,16.92,2.88C193.299,248.685,191.041,242.62,186.098,238.665z"/>
					</g>
					<g id="XMLID_34_">
						<g id="XMLID_36_">
							<circle fill="#765F44" cx="181.872" cy="220.48" r="8.27"/>
						</g>
						<g id="XMLID_35_">
							<circle fill="#765F44" cx="204.766" cy="238.799" r="8.27"/>
						</g>
					</g>
					<g id="XMLID_31_">
						<g id="XMLID_33_">
							<circle fill="#292728" cx="181.769" cy="230.389" r="1.81"/>
						</g>
						<g id="XMLID_32_">
							<circle fill="#292728" cx="195.121" cy="241.073" r="1.81"/>
						</g>
					</g>
					<g id="XMLID_30_">
						<path fill="#634A31" d="M186.435,246.752c-0.062-0.563-0.569-0.968-1.132-0.906c-1.131,0.126-2.22-0.105-3.157-0.602        l2.671-3.338c2.375,0.136,3.341-1.227,3.341-1.227c0.535-0.669,0.483-1.716-0.186-2.251l-2.054-1.644        c-0.669-0.535-1.702-0.357-2.237,0.312c-0.003,0.004-0.005,0.007-0.008,0.011c-0.104,0.123-1.075,1.351-0.456,3.518        l-2.671,3.338c-0.69-0.805-1.154-1.817-1.28-2.948c-0.063-0.563-0.569-0.968-1.132-0.906        c-0.563,0.062-0.968,0.569-0.906,1.132c0.229,2.06,1.274,3.835,2.777,5.038c1.503,1.203,3.464,1.833,5.524,1.605        C186.092,247.821,186.497,247.315,186.435,246.752z"/>
					</g>
					<g id="XMLID_27_">
						<g id="XMLID_29_">
							<path fill="#DAB8B8" d="M181.521,216.504c-2.405,0.482-3.964,2.822-3.481,5.227l8.709-1.746         C186.266,217.58,183.925,216.022,181.521,216.504z"/>
						</g>
						<g id="XMLID_28_">
							<path fill="#DAB8B8" d="M208.723,238.27c-0.057-2.452-2.091-4.393-4.543-4.336l0.207,8.879         C206.839,242.756,208.78,240.722,208.723,238.27z"/>
						</g>
					</g>
				</g>
			</g>
			<g>
				<g>
					<g>
						<g>
							<path fill="#FFA754" d="M177.934,253.6c0.052-0.138,0.104-0.281,0.114-0.423c0.094-1.326-0.652-2.074-0.924-3.371         c-0.121-0.579,0.958-1.648-0.193-2.092c-0.425-0.164-1.524-0.419-2.434-0.759c-1.326-0.497-2.707-1.928-3.594-3.267         c-3.484-5.26-5.44-11.322-7.187-17.38c-0.1-0.345-0.198-0.707-0.127-1.059c0.205-1.023,1.813-2.165,2.514-2.856         c1.225-1.207,2.364-2.498,3.444-3.835c2.171-2.688,4.091-5.568,6.005-8.441c0.605-0.908,1.223-1.846,1.436-2.916         c0.601-3.019-3.01-5.164-5.614-5.156c-4.945,0.014-7.727,6.682-10.066,10.216c-2.213,3.344-4.192,6.843-5.916,10.464         c-0.213,0.447-0.426,0.911-0.446,1.406c-0.021,0.527,0.178,1.035,0.376,1.525c2.544,6.301,5.629,12.342,8.853,18.351         c0.886,1.651,2.527,2.627,3.333,4.161c0.514,0.979,0.213,2.117,0.493,3.148c0.277,1.02,0.902,2.289,1.536,3.134         c1.25,1.667,3.402,1.646,5.284,1.812c0.469,0.042,0.785,0.071,1.191-0.1c0.661-0.278,1.007-0.882,1.372-1.468         C177.602,254.347,177.791,253.981,177.934,253.6z"/>
						</g>
					</g>
				</g>
				<g>
					<g>
						<path fill="#FFBEB8" d="M189.415,202.712c0.088,0.436,0.149,0.883,0.166,1.352c0.065,1.775-0.361,3.512-1.119,5.111        c-1.658,3.5-4.19,6.527-5.87,10.016c-0.054,0.113-0.113,0.233-0.22,0.299c-0.117,0.073-0.266,0.065-0.402,0.043        c-1.058-0.171-1.868-1.027-2.477-1.909c-0.609-0.882-1.127-1.862-1.971-2.522c-1.97-1.542-4.819-0.792-7.28-1.238        c-1.375-0.249-2.674-0.903-3.694-1.859c-0.329-0.309-0.639-0.665-0.764-1.099c-0.369-1.282,0.101-2.391-1.248-3.258        c-0.339-0.218-0.73-0.36-1.021-0.639c-3.341-3.213,1.509-5.223,3.197-6.961c2.222-2.288,3.676-5.322,6.428-7.079        c2.242-1.432,4.37-1.885,7.004-1.823c0.617,0.014,1.277,0.043,1.777,0.405c0.318,0.231,0.534,0.572,0.808,0.853        c0.527,0.542,1.476,0.816,2.107,1.263c0.746,0.529,1.423,1.156,2.008,1.858c0.998,1.197,1.186,2.162,1.544,3.586        C188.704,200.358,189.167,201.489,189.415,202.712z"/>
					</g>
				</g>
			</g>
			<g>
				<g>
					<g>
						<path fill="#534741" d="M212.169,190.434c-0.806-1.236-1.921-2.264-2.605-3.572c-2.102-4.023,0.511-8.931-0.107-13.428        c-0.315-2.291-1.457-4.359-2.671-6.343c0.04-0.102,0.084-0.202,0.119-0.307c1.23-3.644,0.124-7.965-2.704-10.57        c-0.908-0.837-1.962-1.497-3.008-2.153c-1.978-1.239-4.004-2.748-6.226-3.508c-1.03-0.353-2.14-0.447-3.236-0.457        c-2.487-0.021-4.929,0.375-7.374,0.618c-4.329,0.428-8.267,3.195-10.818,6.762c-0.772,1.079-1.417,2.232-1.907,3.415        c-1.683,4.062-1.737,8.774-0.147,12.874c0.936,2.414,2.508,4.64,3.085,7.187c0.558,2.461,1.108,4.624,2.317,6.931        c1.093,2.085,2.97,4.742,5.367,3.955c1.247-0.409,1.88-1.584,3.036-2.051c1.415-0.572,3.317-0.146,4.792-0.102        c2.872,0.087,5.801-0.525,8.624,0.237c2.15,0.581,3.81,3.371,2.493,5.522c-0.423,0.691-1.152,1.139-1.643,1.783        c-1.023,1.34-0.791,3.373,0.269,4.684c1.06,1.311,2.775,1.961,4.458,2.066c3.224,0.2,6.494-1.546,8.12-4.338        C214.029,196.845,213.935,193.139,212.169,190.434z"/>
					</g>
					<g>
						<g>
							<path fill="#FFA754" d="M205.669,168.365c0.342-3.23-0.293-6.331-2.503-8.874c-0.702-0.808-1.6-1.42-2.54-1.922         c-3.197-1.708-7.007-2.203-10.523-1.368c-4.94,1.174-7.82,4.025-9.133,8.116c-0.862,2.683-1.736,5.334-1.046,8.142         c0.681,2.767,1.363,5.223,1.883,7.996c0.487,2.598,2.073,4.475,3.996,6.222c1.94,1.762,2.195,2.102,2.308,4.888         c0.058,1.433,0.397,3.035,1.591,3.807c0.629,0.408,1.399,0.513,2.144,0.568c1.017,0.075,2.04,0.075,3.057-0.001         c0.782-0.059,1.612-0.185,2.202-0.708c0.91-0.808,0.911-2.218,0.828-3.442c-0.227-3.354,0.18-3.461,2.846-4.808         c2.418-1.222,4.886-3.888,4.96-6.253c0.043-1.357-0.313-2.831-0.802-4.51c-0.72-2.469,0.271-4.618,0.646-7.162         C205.615,168.825,205.645,168.595,205.669,168.365z"/>
						</g>
						<g>
							<path fill="#534741" d="M200.109,158.821c1.514,0.516,2.96,1.229,3.962,2.448c1.165,1.417,1.554,3.328,1.584,5.163         c0.014,0.863-0.268,1.549-1.129,1.76c0.952,1.644,3.344,0.429,4.138-0.778c1.176-1.79,0.206-5.404-0.507-7.271         c-0.73-1.913-1.902-3.625-3.163-5.223c-1.614-2.045-4.201-3.472-7.004-3.962c-2.503-0.437-5.321,0.856-7.156,2.683         c-0.553,0.551-1.897,1.708-1.658,2.616c0.35,1.33,2.582,0.627,3.55,0.79c2.012,0.339,4.016,0.798,5.984,1.348         C199.174,158.523,199.645,158.663,200.109,158.821z"/>
						</g>
						<g>
							<path fill="#534741" d="M189.245,163.038c-0.793,0.157-1.567,0.377-2.308,0.705c-1.935,0.858-3.62,2.654-3.658,4.77         c-0.034,1.897,0.835,3.161-0.096,4.946c-0.745,1.429-2.153,2.793-2.137,4.503c0.008,0.866,0.407,1.671,0.676,2.494         c0.29,0.887,0.133,1.453,0.017,2.314c-0.105,0.777,0.058,1.525,0.229,2.348c0.373,1.789,0.847,3.571,1.675,5.209         c0.644,1.274,1.494,2.443,2.508,3.449c0.701,0.696,1.504,1.347,1.883,2.26c0.423,1.018,0.236,2.199-0.198,3.212         c-0.938,2.19-2.998,3.814-5.301,4.426c-2.303,0.612-4.807,0.261-6.959-0.762c-4.713-2.239-8.546-7.588-3.142-11.278         c1.318-0.9,2.928-1.842,3.106-3.428c0.285-2.536-3.362-4.273-3.006-6.801c0.254-1.808,2.328-2.619,3.737-3.781         c5.975-4.926-0.535-12.832,1.505-18.712c0.502-1.448,1.514-2.657,2.558-3.779c1.868-2.005,4.069-3.916,6.95-3.691         c1.401,0.109,2.786,0.418,4.102,0.909c1.103,0.411,5.25,0.866,5.853,1.74c0.416,0.562,2.472,0.781,3.113,0.974         c0.54,0.162,1.216,0.266,1.713,0.54c0.738,0.407,1.107,1.101,1.83,1.575c-0.829,1.942-2.61,3.357-4.562,4.161         c-1.952,0.804-4.08,1.065-6.184,1.245C191.846,162.698,190.523,162.786,189.245,163.038z"/>
						</g>
					</g>
				</g>
			</g>
		</g>
	</g>
	<g>
		<g>
			<g>
				<path fill="#FFA754" d="M256.344,228.645l-4.752,1.829c0,0-2.862-0.753-2.862-0.753c-3.025-0.796-6.105,3.823-5.081,6.334      c0.466,1.143,1.49,1.946,2.47,2.696c4.137,3.16,5.748,0.299,8.768-2.881l4.449-2.664L256.344,228.645z"/>
			</g>
			<g>
				<path fill="#E75C2E" d="M271.076,213.798c-0.804,1.737-1.743,3.28-2.881,4.469c-4.161,4.346-10.838,6.446-15.793,9.748      c0.465,2.145,1.385,4.201,2.679,5.975c1.672,2.291,1.911,2.214,4.413,1.359c4.182-1.429,8.268-3.658,12.147-5.752      c5.996-3.236,12.762-5.992,17.175-11.414c4.422-5.432,5.667-13.875,5.087-20.713c-0.195-2.296-0.78-4.611-2.087-6.509      c-1.307-1.898-3.415-3.329-5.717-3.438c-2.64-0.125-5.122,1.485-6.729,3.584c-1.607,2.098-2.494,4.646-3.356,7.144      C274.502,202.634,273.312,208.966,271.076,213.798z"/>
			</g>
		</g>
		<g>
			<g>
				<g>
					<g>
						<g>
							<path fill="#333333" d="M284.713,347.832c0.154,3.548,0.97,6.671-1.071,9.736c-0.436,0.655-0.93,1.301-1.608,1.7         c-0.4,0.235-0.85,0.376-1.249,0.613c-0.354,0.21-0.661,0.492-1.014,0.704c-1.483,0.888-3.383,0.363-4.991-0.27         c-0.796-0.314-1.723-0.858-1.67-1.712c0.028-0.458,0.346-0.837,0.628-1.199c0.95-1.219,1.651-2.631,2.048-4.125         c0.145-0.546,4.108-7.619,3.834-7.742C279.621,345.536,284.713,347.832,284.713,347.832z"/>
						</g>
					</g>
					<g>
						<g>
							<polygon fill="#1F1A4F" points="265.469,257.67 267.52,301.051 276.132,349.834 285.446,349.912 288.671,302.339          296.405,266.377        "/>
						</g>
					</g>
				</g>
				<g>
					<g>
						<path fill="#333333" d="M326.829,341.336c-0.299,0.831-0.72,1.618-1.19,2.366c-1.402,2.231-3.267,4.165-5.44,5.638        c-0.401,0.272-0.834,0.536-1.316,0.568c-1.222,0.082-2.027-1.313-2.165-2.54c-0.287-2.552,0.899-4.959,0.998-7.483        c0.087-2.216-0.167-2.593,1.594-3.942c0.472-0.362,4.744-3.656,4.54-3.992c1.811,2.976,4.256,4.532,3.216,8.617        C326.999,340.829,326.919,341.085,326.829,341.336z"/>
					</g>
					<g>
						<path fill="#1F1A4F" d="M316.8,339.228c0.174,0.202,0.348,0.405,0.522,0.607c0.152,0.177,0.315,0.361,0.511,0.418        c0.296,0.085,0.57-0.142,0.805-0.359c2.402-2.222,4.717-4.594,6.935-7.106c-3.191-7.546-6.381-15.093-9.572-22.639        c-0.69-1.631-1.391-3.302-1.635-5.1c-0.316-2.329,0.163-4.632,0.603-6.862c1.183-5.995,2.113-12.092,2.785-18.256        c0.445-4.084,0.762-8.374-0.355-12.376c-0.9-3.223-2.658-5.989-3.8-9.1c-0.509-1.388-0.935-2.913-1.859-3.902        c-1.073-1.147-1.729-0.448-2.729-0.153c-1.197,0.353-2.499,0.809-3.991,0.909c-3.596,0.24-7.184,0.569-10.762,0.984        c-1.366,0.159-5.859-0.231-6.79,0.946c-0.942,1.19,0.088,6.697,0.203,8.432c0.83,12.618,2.06,25.226,3.685,37.784        c0.115,0.89,0.234,1.789,0.5,2.637c0.283,0.905,0.724,1.724,1.171,2.523c1.798,3.218,3.76,6.292,5.868,9.192        c2.734,3.761,5.707,7.222,8.676,10.677C310.645,332.064,313.722,335.646,316.8,339.228z"/>
					</g>
				</g>
			</g>
			<g>
				<g>
					<g>
						<g>
							<path fill="#FFA754" d="M313.502,163.529c0.873-0.914,1.511-2.047,1.83-3.27c0.259-0.994,0.478-2.175-0.201-2.947         c-0.502-0.57-1.363-0.705-2.102-0.529c-0.68,0.162-1.29,0.559-1.889,0.894c-1.218-1.786-0.418-5.252-1.246-7.401         c-0.569-1.475-1.591-2.767-2.622-4.016c-0.676-0.819-1.377-1.644-2.285-2.24c-3.486-2.286-8.052-2.647-12.01-1.6         c-8.388,2.218-9.001,11.183-10.931,18.153c-1.536,5.548-1.996,11.191,3.915,14.495c1.514,0.847,3.182,2.15,3.773,3.821         c0.321,0.907,0.379,1.878,0.407,2.834c0.021,0.712,0.036,1.46,0.401,2.08c0.634,1.079,2.053,1.385,3.305,1.582         c1.525,0.24,3.306,0.405,4.384-0.662c1.377-1.363,1.195-3.812,2.337-5.381c0.945-1.297,2.292-1.988,3.438-3.019         c1.177-1.059,2.261-2.273,3.446-3.346c1.561-1.414,3.122-3.043,3.141-5.257c0.007-0.782-0.118-1.657,0.378-2.261         c0.243-0.295,0.599-0.47,0.929-0.663C312.493,164.452,313.031,164.022,313.502,163.529z"/>
						</g>
						<g>
							<path fill="#A67C52" d="M316.681,146.927c-1.224-2.369-3.011-4.477-5.142-6.126c-1.678-1.299-3.48-2.513-5.525-3.078         c-3.801-1.05-13.963,1.971-15.112-2.862c-0.429-1.802-3.187-2.582-4.512-1.276c-0.394,0.389-0.652,0.894-1.054,1.275         c-0.403,0.381-1.056,0.615-1.537,0.317c-0.632-0.392-0.526-1.373-1.076-1.868c-0.683-0.615-1.859,0.002-2.161,0.845         c-0.174,0.485,0.014,1.078-0.147,1.521c-0.123,0.339-0.401,0.445-0.549,0.763c-0.335,0.717-0.675,1.314-0.272,2.123         c0.16,0.322,0.408,0.602,0.531,0.938c0.236,0.647-0.031,1.342-0.127,2.017c-0.212,1.484,0.423,2.941,1.28,4.234         c-0.663,1.4-1.187,2.891-1.226,4.351c-0.063,2.429,1.478,5.351,2.216,7.655c0.538-0.634,0.747-1.473,1.037-2.252         c0.614-1.648,1.66-3.132,3.005-4.264c0.662-0.557,1.391-1.035,2.012-1.635c0.094,0.034,0.189,0.068,0.279,0.102         c0.569,0.22,1.151,0.442,1.761,0.459c2.072,0.057,4.106,0.448,6.239,0.607c2.206,0.164,4.461,0.396,6.458,1.348         c1.997,0.952,3.717,2.768,3.967,4.966c0.112,0.989-0.022,2.133,0.683,2.835c2.456,2.446,4.128-2.583,6.234-1.444         c1.538,0.832,0.125,3.311-0.657,4.248c-0.694,0.832-1.601,1.468-2.281,2.31c-0.681,0.843-1.116,2.029-0.658,3.01         c0.108,0.231,0.29,0.458,0.543,0.493c0.3,0.041,0.558-0.198,0.764-0.421c2.891-3.127,5.414-6.748,6.413-10.888         C318.93,153.644,318.299,150.057,316.681,146.927z"/>
						</g>
					</g>
				</g>
				<g>
					<path fill="#E75C2E" d="M263.564,251.415c0.397-5.062,0.977-10.114,1.332-15.194c0.353-5.06,0.832-10.11,1.481-15.136       c1.384-10.717,3.674-21.297,10.313-29.991c1.452-1.901,3.014-3.943,5.078-5.221c1.4-0.867,3.594-1.035,4.721-2.267       c0.812-0.888,0.81-2.592,0.549-3.716c4.028-0.069,8.41-0.007,12.573-0.229c3.266-0.172,2.615,1.5,3.868,3.682       c1.345,2.341,4.706,3.503,6.601,5.267c1.757,1.636,3.033,3.794,4.129,6.007c1.804,3.642,3.195,7.533,4.03,11.567       c0.804,3.885,1.089,7.873,1.315,11.847c0.781,13.762,0.876,27.569,0.285,41.342c-0.104,2.417,0.136,5.821-0.751,8.079       c-0.904,2.3-3.473,1.976-5.759,2.32c-5.339,0.803-10.729,1.21-16.119,1.224c-10.78,0.027-21.566-1.522-31.959-4.63       c-0.584-0.175-1.203-0.379-1.591-0.882c-0.427-0.553-0.473-1.332-0.493-2.053C263.051,259.407,263.251,255.408,263.564,251.415       z"/>
				</g>
			</g>
		</g>
		<g>
			<g>
				<path fill="#FFA754" d="M317.748,249.811c-0.764,1.492-1.527,2.982-2.364,4.435c-0.942,0.421-1.884,0.839-2.828,1.256      c-0.741,1.28-1.521,2.541-2.238,3.832c0.317,0.307,1.761,1.509,2.113,1.242c0.755-0.573,1.129-1.176,2.098-1.299      c-0.017,1.516-0.321,2.833-0.936,4.249c-0.536,1.234-1.42,2.463,0.392,2.984c0.486,0.14,1.08,0.029,1.603-0.155      c1.322-0.465,2.444-1.248,3.299-2.383c0.674-0.894,1.107-1.865,2.004-2.578c0.148-0.117,0.298-0.125,0.41-0.369      c0.272-0.591,0.134-1.989,0.13-2.559c-0.004-0.569,0.09-1.693,0.154-1.886c0.607-1.827,1.036-3.179,1.489-4.89      C321.299,251.069,319.537,250.397,317.748,249.811z"/>
			</g>
			<g>
				<path fill="#E75C2E" d="M321.987,230.166c-0.194,2.646-1.449,5.38-2.286,7.958c-1.488,4.584-2.427,8.716-3.21,13.374      c0.657,0.397,10.331,4.063,10.282,4.165c3.193-6.587,6.386-13.173,9.579-19.76c1.141-2.354,2.303-4.78,2.495-7.389      c0.559-7.569-4.333-15.121-8.247-21.283c-4.383-6.903-9.702-13.338-15.991-18.591c-1.404-1.173-2.875-1.834-4.442-2.46      c-4.005-1.603-7.565,0.566-10.188,3.837c-1.616,2.015-2.49,4.754-1.79,7.24c0.593,2.105,2.189,3.752,3.704,5.329      c6.823,7.106,13.12,14.715,18.824,22.747C321.809,226.868,322.109,228.499,321.987,230.166z"/>
			</g>
		</g>
	</g>
</g>
</svg>