<?xml version="1.0" encoding="UTF-8"?>
<!-- Generator: Adobe Illustrator 17.0.0, SVG Export Plug-In . SVG Version: 6.00 Build 0)  -->
<!DOCTYPE svg PUBLIC "-//W3C//DTD SVG 1.1//EN" "http://www.w3.org/Graphics/SVG/1.1/DTD/svg11.dtd">
<svg version="1.1" id="Слой_1" xmlns="http://www.w3.org/2000/svg" xmlns:xlink="http://www.w3.org/1999/xlink" x="0px" y="0px" width="480px" height="480px" viewBox="0 0 480 480" enable-background="new 0 0 480 480" xml:space="preserve">
<g>
	<path fill="#F1F4FA" d="M197.693,390.976c75.677,24.793,191.162-39.456,204.2-126.073c4.756-31.594-1.127-86.037-33.34-106.616   c-17.519-11.193-36.156-8.108-48.953-25.921c-13.467-18.745-1.754-34.584-12.311-46.793   c-18.343-21.212-117.509,7.38-158.367,32.983c-7.228,4.529-76.558,52.638-74.212,99.083C78.667,296,175.97,383.859,197.693,390.976   z"/>
	<g>
		<g>
			<g>
				<g>
					<g>
						<g>
							<g>
								<path fill="#FFA754" d="M177.123,368.934c0.331,7.861,0.864,15.668,1.802,23.309c2.114,0.046,4.202,0.382,6.336,0.159          c0.224-0.023,0.877-14.774,1.253-23.32C183.38,369.122,180.249,369.081,177.123,368.934z"/>
							</g>
						</g>
						<g>
							<g>
								<path fill="#4D4D4D" d="M177.994,388.249c-1.337-0.142-2.074,0.5-2.898,1.366c-0.478,0.503-0.779,1.188-1.372,1.566          c-0.593,0.378-1.193,0.486-1.921,0.611c-3.831,0.659-12.733,1.123-7.543,7.244c4.713,5.558,15.971,2.422,22.458,0.366          c0.426-0.135,0.88-0.233,1.175-0.591s0.475-0.852,0.576-1.357c0.559-2.811,1.346-6.326-2.126-7.243          c-1.481-0.391-2.746,0.66-4.314,0.237C180.743,390.102,179.33,388.392,177.994,388.249z"/>
							</g>
						</g>
					</g>
				</g>
				<g>
					<path fill="#1F1A4F" d="M170.786,383.673c8.581-0.771,10.837,0.935,19.418,0.164c4.624-33.58,12.629-107.982,15.565-141.751       c0.228-2.618,0.437-5.339-0.486-7.8c-1.746-4.654-7.027-7.008-11.965-7.576c-7.674-0.883-28.796,3.167-32.126,11.315       c-3.52,8.611-1.154,9.14-1.503,18.407c-0.298,7.911,3.232,32.262,3.552,45.321       C163.944,330.437,169.086,366.367,170.786,383.673z"/>
				</g>
			</g>
			<g>
				<g>
					<g>
						<g>
							<g>
								<path fill="#FFA754" d="M230.871,361.798c0.919,8.333,2.551,23.146,2.334,23.203c-2.045,0.539-4.13,0.527-6.196,0.802          c-2.14-7.557-3.884-15.351-5.433-23.23C224.673,362.302,227.771,362.041,230.871,361.798z"/>
							</g>
						</g>
						<g>
							<g>
								<path fill="#4D4D4D" d="M225.472,382.355c-1.167-0.119-2.012,0.379-1.851,2.567c0.095,1.295,0.706,2.51,0.8,3.804          c0.055,0.768-0.073,1.536-0.201,2.295c-0.412,2.439-0.824,4.878-1.236,7.317c-0.144,0.855-0.288,1.737-0.091,2.581          c0.803,3.444,5.614,3.312,8.032,1.995c2.345-1.278,4.19-3.531,4.756-6.141c0.303-1.395,0.245-2.84,0.186-4.267          c-0.097-2.343-0.195-4.687-0.292-7.03c-0.026-0.626-0.056-1.269-0.311-1.841c-1.036-2.322-3.801,0.139-5.503-0.048          C228.607,383.459,226.824,382.494,225.472,382.355z"/>
							</g>
						</g>
					</g>
				</g>
				<g>
					<path fill="#1F1A4F" d="M217.303,379.5c8.046,0.097,12.327-0.716,20.688-2.793c-0.298-17.566-2.088-64.474-2.088-64.474       s2.178-62.91,1.084-79.202c-0.176-2.622-0.386-5.343-1.675-7.633c-2.438-4.332-8.018-5.849-12.984-5.654       c-7.718,0.303-20.882,5.329-22.925,13.891c-2.159,9.049-1.761,19.156-1.844,28.429c-0.1,11.212,5.237,47.585,5.237,47.585       S213.025,360.615,217.303,379.5z"/>
				</g>
			</g>
			<g>
				<g>
					<path fill="#58A9C7" d="M209.883,129.857c-7.985-4.857-17.829-7.318-26.257-4.515c-2.613,0.869-4.897,2.438-6.451,4.735       c-5.283,7.808-6.628,17.764-9.443,26.584c-3.612,11.317-7.754,22.863-9.382,34.652c-1.101,7.977-1.985,16.289-2.523,24.44       c-0.624,9.455,0.262,18.847-2.27,28.1c-0.606,2.214-1.356,4.446-1.252,6.739c0.096,2.114,0.919,4.177,0.759,6.287       c-0.096,1.269-0.807,5.098,1.063,3.138c0.795-0.833,0.973-2.633,1.392-3.697c0.197,0.014,0.395,0.029,0.592,0.043       c0.17,0.455,0.256,0.942,0.252,1.428c0.365,0.231,0.833-0.048,1.149-0.342c1.827-1.702,2.656-4.877,5.061-5.944       c2.755-1.223,7.755-0.117,10.792-0.025c6.617,0.201,13.242,0.401,19.856,0.097c9.215-0.423,18.354-1.822,27.473-3.219       c3.544-0.543,7.096-1.085,10.582-1.934c2.491-0.607,7.321-1.2,8.129-3.945c0.858-2.915,0.237-7.246,0.3-10.304       c0.076-3.656,0.091-7.313,0.038-10.97c-0.214-14.618-1.528-29.258-4.553-43.575c-1.42-6.72-3.217-13.363-5.441-19.862       C225.949,146.663,220.096,136.068,209.883,129.857z"/>
				</g>
				<g>
					<g>
						<path fill="#443935" d="M174.467,78.926c1.553-0.977,3.154-1.964,4.951-2.331c3.097-0.633,5.022,0.451,2.317,2.67        c-1.937,1.589-3.568,3.375-4.778,5.589c-1.767,3.232-2.582,6.934-2.681,10.619c-0.035,1.294-0.458,2.332-1.358,0.798        c-0.659-1.124-1.045-2.504-1.365-3.758c-0.434-1.702-0.79-3.43-0.939-5.183c-0.138-1.619-0.258-3.53,0.328-5.074        C171.519,80.733,173.164,79.746,174.467,78.926z"/>
					</g>
					<g>
						<g>
							<path fill="#FFA754" d="M198.325,125.58c0,0.117,0.002,0.233,0.005,0.35c0.035,1.403,0.167,2.867-0.972,3.907         c-0.628,0.573-1.486,0.813-2.322,0.96c-2.161,0.381-4.409,0.26-6.517-0.352c-0.867-0.252-1.733-0.598-2.395-1.214         c-0.782-0.727-0.833-1.428-0.887-2.397c-0.063-1.135-0.311-2.286-0.479-3.435c-0.367-2.514-0.557-5.051-0.673-7.587         c-3.734-0.576-8.132-1.708-9.472-5.595c-0.838-2.432-0.265-5.104-0.644-7.62c-0.395-2.623-1.176-5.167-1.724-7.759         c-0.813-3.846-0.318-7.828,1.109-11.431c0.932-2.353,3.946-4.1,6.355-4.919c1.066-0.362,2.188-0.49,3.278-0.857         c1.329-0.448,2.694-0.792,4.077-1.027c5.439-0.923,11.18-0.094,15.931,2.788c1.773,1.075,3.452,2.468,4.495,4.38         c1.608,2.948,1.475,6.624,1.292,10.061c-0.179,3.357,0.326,6.702-0.272,10.053c-0.452,2.531-1.474,5.021-3.278,6.854         c-0.946,0.962-2.083,1.72-3.024,2.688c-2.153,2.214-3.045,5.269-3.516,8.245C198.487,122.968,198.322,124.269,198.325,125.58         z"/>
						</g>
					</g>
					<g>
						<path fill="#534741" d="M172.962,108.789c0.228,2.225,0.579,4.438,1.049,6.625c0.243,1.13,0.535,2.29,1.24,3.205        c0.97,1.261,2.603,1.87,4.191,1.959c1.995,0.112,3.88-0.364,5.872-0.242c1.597,0.098,3.338-0.102,4.896-0.445        c3.271-0.721,5.903-2.623,7.335-5.695c1.167-2.502,1.502-5.393,1.276-8.187c-0.062-0.768-0.173-1.556-0.547-2.213        c-0.374-0.657-1.071-1.153-1.776-1.042c-0.901,0.142-1.427,1.127-1.996,1.894c-1.241,1.675-3.467,2.636-5.294,1.783        c-0.541-0.253-1.012-0.64-1.481-1.032c-0.192-0.16-0.384-0.321-0.579-0.474c-1.942-1.514-4.3-2.183-6.65-2.449        c-1.909-0.217-4.591-0.855-6.362,0.272c-0.859,0.546-1.208,1.536-1.318,2.617        C172.699,106.549,172.865,107.843,172.962,108.789z M176.268,110.311c1.505,0.419,2.978,0.181,4.464-0.205        c0.685-0.178,0.997,0.878,0.311,1.057c-1.671,0.435-3.358,0.686-5.049,0.215C175.313,111.188,175.583,110.12,176.268,110.311z        "/>
					</g>
					<g>
						<path fill="#534741" d="M169.383,75.024c0.582-0.032,1.102-0.073,1.107-0.068c-2.128-2.527-2.076-3.434-4.204-5.961        c3.763,1.348,5.513,0.539,9.473,0.784c-0.373-1.732-0.635-3.491-0.784-5.261c4.381,2.15,9.416,1.831,14.225,1.574        c5.881-0.314,11.589-0.086,16.46,3.84c4.32,3.482,8.042,8.07,9.697,13.658c0.508,1.714,0.817,3.494,0.917,5.288        c0.225,4.008-0.59,8.013-1.827,11.801c-0.494,1.514-1.061,3.014-1.885,4.353c-0.865,1.406-1.993,2.602-3.161,3.729        c-1.811,1.747-3.741,3.354-5.768,4.804c0.908-0.649-0.255-2.041-0.163-2.918c0.142-1.351,1.374-2.925,1.873-4.202        c0.46-1.177,0.849-2.494,0.422-3.683c-0.181-0.504-0.505-0.968-0.553-1.502c-0.104-1.148,0.945-1.803,1.361-2.744        c0.481-1.089,0.657-2.828,0.443-4.006c-0.306-1.685-1.893-3.142-3.456-2.764c-1.164,0.281-2.905,3.106-3.935,2.008        c-0.478-0.51-0.504-2.063-0.732-2.757c-0.305-0.93-0.717-1.822-1.304-2.588c-1.424-1.859-3.656-2.751-5.814-3.417        c-4.418-1.363-8.989-2.102-13.582-2.23c-3.294-0.092-7.341,0.199-9.952-2.373c-1.695-1.669-2.294-4.188-2.816-6.56        c0.771,0.386,1.611,0.93,2.415,1.195C168.02,75.084,168.739,75.059,169.383,75.024z"/>
					</g>
				</g>
			</g>
		</g>
		<g>
			<g>
				<g>
					<g>
						<path fill="#FFA754" d="M173.223,199.682c-1.214-0.193-2.363-0.649-3.488-1.125c-1.456-0.615-2.916-1.282-4.11-2.292        c-1.194-1.009-2.109-2.413-2.178-3.948c-0.01-0.218-0.002-0.441,0.075-0.646c0.119-0.319,0.389-0.562,0.649-0.792        c1.463-1.29,3.354-2.678,5.22-2.071c1.299,0.423,2.263,1.764,3.637,1.713c-0.603-0.578,0.229-1.631,1.084-1.632        c0.854-0.002,1.574,0.559,2.334,0.929c1.759,0.856,4.024,0.663,5.617-0.48c0.254-0.182,0.542-0.399,0.849-0.335        c0.387,0.08,0.525,0.533,0.59,0.91c0.489,2.806,1.599,6.219,1.346,9.005C181.151,198.644,176.925,199.26,173.223,199.682z"/>
					</g>
					<g>
						<path fill="#FFA754" d="M191.186,179.802c1.213,0.202,2.358,0.666,3.479,1.15c1.451,0.626,2.906,1.303,4.092,2.321        c1.186,1.018,2.09,2.429,2.147,3.964c0.008,0.218-0.002,0.441-0.08,0.646c-0.122,0.318-0.393,0.559-0.655,0.787        c-1.473,1.279-3.374,2.654-5.235,2.034c-1.295-0.432-2.249-1.78-3.624-1.739c0.599,0.582-0.242,1.629-1.096,1.625        c-0.854-0.005-1.57-0.57-2.327-0.946c-1.753-0.869-4.018-0.692-5.62,0.439c-0.255,0.18-0.545,0.395-0.852,0.329        c-0.387-0.083-0.521-0.537-0.583-0.914c-0.467-2.81-1.55-6.23-1.276-9.015C183.252,180.782,187.482,180.197,191.186,179.802z"/>
					</g>
					<g>
						<path fill="#58A9C7" d="M216.023,146.336c2.166,3.149,3.837,6.687,5.158,10.282c5.365,14.604,5.597,30.517,5.767,46.074        c0.01,0.889,0.005,1.833-0.466,2.587c-0.44,0.704-1.212,1.121-1.965,1.47c-6.511,3.023-13.884,3.201-20.853,1.966        c-1.942-0.344-20.565-4.701-20.716-5.994c-0.599-5.139-1.198-10.278-1.796-15.417c4.258-0.289,8.516-0.577,12.774-0.866        c3.804-0.258,9.047,0.229,12.504-1.079c-3.976-6.36-7.942-11.878-9.972-19.298c-2-7.31-2.4-15.071-1.005-22.528        c0.278-1.485,0.644-3.004,1.543-4.218c1.432-1.934,4.042-2.748,6.434-2.477c2.392,0.271,4.585,1.482,6.493,2.949        C212.309,141.623,214.319,143.859,216.023,146.336z"/>
					</g>
					<g>
						<path fill="#58A9C7" d="M146.089,192.878c-0.026,1.309-0.006,2.62,0.066,3.934c0.119,2.167,0.411,4.418,1.647,6.224        c1.236,1.806,3.667,3.013,5.79,2.268c3.372-1.183,7.041-3.664,9.941-5.695c5.089-3.562,10.508-6.359,16.127-8.34        c1.501-0.529,3.017-1.001,4.544-1.413c1.119-0.302,3.392-0.213,4.273-1.102c0.808-0.814,1.337-3.226,1.908-4.391        c0.778-1.588,1.639-3.101,2.575-4.524c0.132-0.201,0.268-0.505,0.131-0.726c-0.066-0.107-0.174-0.144-0.274-0.175        c-0.569-0.178-1.138-0.356-1.707-0.533c-7.585-2.37-15.84,0.254-22.878,3.213c2.231-0.938,2.227-4.878,2.672-6.822        c0.653-2.85,1.862-5.471,2.383-8.382c0.787-4.392,1.574-8.783,2.36-13.175c1.17-6.527,2.618-13.335,5.115-19.533        c0.446-1.107,0.923-2.374,0.4-3.447c-0.511-1.049-1.847-1.481-2.997-1.286c-1.15,0.195-2.151,0.879-3.084,1.578        c-5.228,3.912-11.23,8.402-14.597,14.039c-5.638,9.44-8.058,19.707-11.173,30.191        C147.563,180.675,146.212,186.707,146.089,192.878z"/>
					</g>
				</g>
			</g>
		</g>
	</g>
	<g>
		<g>
			<g>
				<g>
					<g>
						<g>
							<g>
								<g>
									<polygon fill="#FFA754" points="279.22,380.288 277.691,396.176 287.107,397.075 288.802,379.46          "/>
								</g>
							</g>
						</g>
						<g>
							<g>
								<g>
									<path fill="#534741" d="M286.472,394.514l-8.42,2.037l-2.659,2.431l-0.098,6.269l22.019,3.539l0,0           c2.096-2.573,1.181-6.371-1.855-7.7l-1.002-0.439L286.472,394.514z"/>
								</g>
							</g>
						</g>
					</g>
				</g>
				<g>
					<path fill="#1F1A4F" d="M267.026,242.772c0.223-0.408,0.494-0.782,0.839-1.097c0.888-0.812,2.123-1.104,3.306-1.318       c10.172-1.839,20.61-0.087,30.797,1.665c2.135,0.367,4.365,0.775,6.073,2.106c2.838,2.21,1.73,5.301,1.341,8.293       c-0.572,4.396-0.519,8.775-0.224,13.191c0.458,6.858,1.689,13.655,1.949,20.523c0.219,5.802-0.257,11.607-0.855,17.383       c-1.982,19.112-6.646,37.178-11.163,55.706c-0.595,2.441-6.469,32.022-8.654,31.828c-4.431-0.39-8.861-0.78-13.292-1.17       c-2.76-20.043,0.721-40.341,2.002-60.532c0.587-9.246,1.175-19.227-0.556-28.388c-1.633-8.643-5.037-15.049-9.069-22.812       c-5.286-10.174-6.475-22.406-3.248-33.408C266.468,244.07,266.692,243.384,267.026,242.772z"/>
				</g>
			</g>
		</g>
		<g>
			<g>
				<g>
					<g>
						<g>
							<g>
								<g>
									<g>
										<path fill="#FFA754" d="M316.18,373.159c-1.158,5.018-2.719,9.924-3.955,14.917c3.081,0.715,6.17,1.399,9.246,2.136            c1.183-5.74,3.152-11.306,4.381-17.049C322.627,373.157,319.404,373.172,316.18,373.159z"/>
									</g>
								</g>
							</g>
							<g>
								<g>
									<g>
										<path fill="#534741" d="M321.232,387.673c-2.992,0.196-5.781,0.578-8.698,0.816c-0.986,0.658-1.99,1.286-2.949,1.984            c-0.217,2.053-0.458,4.105-0.649,6.16c7.175,2.227,14.344,4.449,21.522,6.682c-0.007-0.007,0,0,0,0            c2.01-2.919,1.627-5.607-1.282-8.012c-0.24-0.198-0.002,0.292-1.117-0.792            C326.944,393.426,322.871,389.314,321.232,387.673z"/>
									</g>
								</g>
							</g>
						</g>
					</g>
					<g>
						<path fill="#1F1A4F" d="M268.364,231.998c-0.604-7.642-0.352-15.783,0.771-23.419c13.81-1.634,27.592-1.706,41.441,0.043        c6.667,0.842,13.829,1.259,18.45,6.955c4.65,5.733,5.672,14.985,5.606,22.135c-0.083,9.086-0.321,18.123,0.727,27.244        c1.8,15.667,6.595,30.923,7.652,46.658c0.761,11.315-0.78,21.909-3.623,32.79c-2.597,9.94-5.196,19.901-8.649,29.586        c-1.27,3.562-2.125,9.305-6.022,10.344c-3.836,1.023-8.103-2.259-11.981-2.23c0.359-11.765,1.982-23.432,3.023-35.144        c0.604-6.796,1.808-13.594,1.512-20.441c-0.336-7.764-3.412-11.879-7.729-18.058c-8.858-12.677-16.759-26.002-25.89-38.493        c-4.294-5.875-8.702-10.379-11.246-17.493C270.06,245.911,268.912,238.929,268.364,231.998z"/>
					</g>
				</g>
				<g>
					<g>
						<path fill="#E75C2E" d="M283.92,141.554c-0.237,0.04-0.473,0.085-0.708,0.133c-9.8,2.017-12.43,10.328-15.134,18.924        c-8.913,28.334-12.121,67.208-6.332,96.814c21.953,1.896,47.363-3.639,69.268-6.631c2.13-0.291,4.543-0.768,5.648-2.612        c0.67-1.117,0.689-2.493,0.689-3.797c-0.002-18.795-3.974-38.995-7.7-57.523c-1.572-7.819-3.509-15.571-5.993-23.152        c0-5.733-5.69-16.206-9.524-20.298c-4.463-4.762-16.356-2.236-22.606-2.264C288.985,141.137,286.423,141.127,283.92,141.554z"/>
					</g>
				</g>
			</g>
			<g>
				<g>
					<path fill="#99704A" d="M308.563,114.562c-0.811-3.909-2.031-7.729-3.513-11.323c-3.305-8.017-9.985-14.157-17.408-15.348       c-12.116-1.945-20.591,9.392-23.14,20.257c-2.77,11.809,4.197,25.492,14.145,31.483c0.444,0.268,0.917,0.53,1.432,0.556       c0.694,0.035,1.328-0.357,1.939-0.693c3.464-1.901,7.518-2.284,11.449-2.489c4.753-0.247,9.517-0.289,14.273-0.126       C310.167,129.738,310.104,121.989,308.563,114.562z"/>
				</g>
				<g>
					<g>
						<g>
							<g>
								<g>
									<path fill="#FFA754" d="M283.396,142.844c0.16,0.274,0.367,0.532,0.638,0.773c1.069,0.949,2.501,1.436,3.9,1.551           c1.844,0.152,3.684-0.272,5.476-0.737c2.422-0.628,2.248-2.082,2.466-4.367c0.367-3.829,0.231-5.99,3.354-8.768           c1.589-1.413,3.361-2.73,4.347-4.614c1.206-2.303,1.035-5.053,0.835-7.645c-0.529-6.838,1.323-15.934-3.98-21.237           c-2.867-2.498-6.872-3.186-10.521-3.431c-4.832-0.325-9.749,0.878-13.734,3.724c-1.609,1.15-3.113,2.604-3.988,4.529           c-1.349,2.968-1.018,6.548-0.652,9.892c0.337,3.086,0.675,6.173,1.012,9.259c0.388,3.55,1.071,7.626,3.81,9.393           c1.454,0.938,3.288,1.044,4.56,2.285c1.592,1.554,1.644,4.03,1.832,6.114C282.859,140.756,282.84,141.891,283.396,142.844z           "/>
								</g>
							</g>
						</g>
					</g>
				</g>
				<g>
					<g>
						<path fill="#A67C52" d="M285.134,104.779c1.915,1.453,3.854,2.888,5.967,4.023c6.243,3.353,13.605,3.867,20.641,3.283        c-2.908-2.714-3.376-7.102-4.662-10.897c-2.685-7.925-9.884-14.077-18.021-15.403c-3.539-0.577-7.332-0.254-10.421,1.594        C267.677,93.933,279.264,100.325,285.134,104.779z"/>
					</g>
					<g>
						<path fill="#A67C52" d="M275.826,107.681c-1.572,4.192-1.863,8.985-1.128,13.45c1.182,7.182,4.639,13.74,8.117,20.105        c-0.221-0.404-5.431-0.959-6.209-1.204c-2.144-0.675-4.21-1.607-6.145-2.763c-3.506-2.095-7.821-5.464-9.54-9.346        c-2.179-4.92-1.916-12.164-0.693-17.304c1.374-5.773,4.355-11.119,8.475-15.323c2.469-2.52,5.582-4.776,9.209-5.133        c2.59-0.255,6.327,0.778,7.233,3.594c1.06,3.292-3.03,5.276-4.967,7.147C278.215,102.801,276.783,105.13,275.826,107.681z"/>
					</g>
				</g>
			</g>
			<g>
				<g>
					<path fill="#FFA754" d="M306.754,197.638c1.11-0.321,2.131-0.888,3.127-1.472c1.29-0.756,2.578-1.562,3.583-2.669       s1.707-2.567,1.608-4.059c-0.014-0.212-0.045-0.426-0.138-0.617c-0.145-0.296-0.422-0.501-0.688-0.694       c-1.499-1.086-3.406-2.221-5.078-1.428c-1.164,0.552-1.919,1.955-3.204,2.057c0.5-0.625-0.387-1.552-1.182-1.459       c-0.795,0.093-1.406,0.714-2.074,1.156c-1.547,1.022-3.675,1.085-5.279,0.155c-0.256-0.148-0.546-0.326-0.826-0.231       c-0.352,0.12-0.432,0.573-0.453,0.945c-0.157,2.768-0.828,6.19-0.297,8.857C299.265,197.509,303.263,197.638,306.754,197.638z"/>
				</g>
				<g>
					<path fill="#FFA754" d="M287.924,180.393c-1.107,0.329-2.124,0.904-3.116,1.495c-1.285,0.765-2.566,1.581-3.563,2.696       s-1.688,2.579-1.578,4.07c0.016,0.212,0.048,0.426,0.143,0.616c0.147,0.295,0.425,0.498,0.693,0.689       c1.507,1.075,3.422,2.195,5.089,1.39c1.16-0.561,1.905-1.969,3.188-2.081c-0.496,0.629,0.398,1.549,1.193,1.45       c0.795-0.099,1.401-0.725,2.065-1.171c1.539-1.034,3.667-1.112,5.278-0.195c0.257,0.146,0.549,0.322,0.828,0.224       c0.351-0.123,0.428-0.577,0.446-0.948c0.137-2.769,0.782-6.196,0.231-8.859C295.414,180.466,291.414,180.367,287.924,180.393z"/>
				</g>
				<g>
					<path fill="#E75C2E" d="M268.275,152.687c-3.491,4.836-5.344,11.022-6.956,17.112c-3.211,12.131-5.764,24.511-7.637,37.035       c-0.193,1.288-0.378,2.613-0.168,3.897c0.553,3.372,3.615,5.311,6.462,5.781c4.81,0.794,9.604-1.192,14.176-3.147       c9.13-3.905,18.26-7.81,27.39-11.715c0.012-5.036,0.024-10.072,0.036-15.108c-8.021,0.382-16.042,0.765-24.063,1.147       c5.106-0.243,14.404-30.726,12.406-36.148C286.045,141.02,273.269,145.77,268.275,152.687z"/>
				</g>
				<g>
					<path fill="#E75C2E" d="M334.807,188.067c0.163,1.263,0.284,2.533,0.356,3.812c0.12,2.109,0.086,4.318-0.873,6.2       c-0.958,1.882-3.093,3.319-5.149,2.832c-3.264-0.772-6.943-2.768-9.858-4.411c-5.115-2.884-10.456-4.991-15.896-6.288       c-1.454-0.346-2.914-0.635-4.38-0.865c-1.074-0.169-3.18,0.168-4.094-0.594c-0.838-0.698-1.587-2.973-2.242-4.036       c-0.893-1.45-1.854-2.818-2.877-4.091c-0.145-0.18-0.303-0.459-0.199-0.687c0.05-0.11,0.147-0.159,0.236-0.2       c0.511-0.235,1.021-0.469,1.532-0.704c6.809-3.128,14.771-1.5,21.636,0.585c-2.678-0.813-4.166-10.705-4.876-13.08       c-1.617-5.407-1.599-11.252-1.245-16.888c0.16-2.551,0.782-5.569,3.15-6.532c1.613-0.656,3.474-0.057,4.959,0.852       c4.215,2.58,6.533,7.305,8.626,11.781C328.461,166.119,333.348,176.784,334.807,188.067z"/>
				</g>
			</g>
		</g>
	</g>
</g>
</svg>