<?xml version="1.0" encoding="UTF-8"?>
<!-- Generator: Adobe Illustrator 17.0.0, SVG Export Plug-In . SVG Version: 6.00 Build 0)  -->
<!DOCTYPE svg PUBLIC "-//W3C//DTD SVG 1.1//EN" "http://www.w3.org/Graphics/SVG/1.1/DTD/svg11.dtd">
<svg version="1.1" id="Слой_1" xmlns="http://www.w3.org/2000/svg" xmlns:xlink="http://www.w3.org/1999/xlink" x="0px" y="0px" width="505.085px" height="505.085px" viewBox="0 0 505.085 505.085" enable-background="new 0 0 505.085 505.085" xml:space="preserve">
<g>
	<defs>
		<path id="SVGID_1_" d="M401.437,345.443c-42.58,73.217-179.759,103.856-251.376,44.271    c-26.123-21.734-59.953-69.142-48.92-108.273c6.001-21.281,22.987-32.012,20.555-55.213c-2.56-24.415-23.066-28.714-23.314-45.878    c-0.431-29.823,98.566-77.245,149.13-85.804c8.944-1.514,104.496-16.726,129.028,26.222    c14.572,25.511-41.784,52.279-24.328,79.724c16.906,26.58,45.003,17.968,61.075,42.379    C430.388,268.846,413.66,324.425,401.437,345.443z"/>
	</defs>
	<use xlink:href="#SVGID_1_" overflow="visible" fill="#F1F4FA"/>
	<clipPath id="SVGID_2_">
		<use xlink:href="#SVGID_1_" overflow="visible"/>
	</clipPath>
	<g clip-path="url(#SVGID_2_)">
		<g>
			<path fill="#FFFFFF" d="M235.825,168.388l6.02-18.01l-8.3-9.561c-6.561-7.559-17.434-7.945-24.285-0.857     c-6.847,7.086-7.078,18.959-0.514,26.521l33.451,36.927l4.063-27.45L235.825,168.388z"/>
		</g>
		<g>
			<path fill="#FFFFFF" d="M282.13,140.377c-6.363-7.845-17.236-8.74-24.292-1.994l-8.921,8.533l-6.526,17.683l10.239,8.038     l-4.828,27.19l33.076-33.021C287.932,160.058,288.491,148.224,282.13,140.377z"/>
		</g>
	</g>
	<g clip-path="url(#SVGID_2_)">
		<g>
			<g>
				<polygon fill="#58A9C7" points="129.77,309.901 147.025,336.742 138.078,370.613 187.926,370.613 194.956,315.652     "/>
				<path fill="#FFA754" d="M195.675,316.851l-6.471,1.039c0,0,3.302,10.225,2.982,13.74s-3.329,6.897-2.689,10.731h9.187      C198.684,342.36,197.512,326.836,195.675,316.851z"/>
				<g>
					<g>
						<path fill="#58A9C7" d="M151.022,285.878c0,0-10.093,6.868-20.185,7.85S119.971,319.7,119.971,319.7s70.71-0.32,76.317-0.32        c0,0-0.643-17.849-8.306-23.643c-7.461-5.642-13.831-3.084-16.774-7.85L151.022,285.878z"/>
						<g>
							<path fill="#E75C2E" d="M138.546,253.498c0,0-2.523,24.375-7.383,28.409c0,0,32.147,10.653,54.715-3.151         c0,0-8.551-5.633-11.728-28.809L138.546,253.498z"/>
							<path fill="#FFA754" d="M171.207,287.888c-4.1-5.385-3.259-19.275-1.121-25.699l-20.419,3.084c0,0,2.757,12.335-0.888,22.042         c-1.132,3.015,4.065,8.235,18.363,16.926C167.258,304.312,171.207,287.888,171.207,287.888z"/>
							<path opacity="0.3" fill="#71607D" d="M151.629,269.571c1.075,9.999,4.954,13.453,17.903,14.884         c-1.207-3.746-1.427-8.798-1.053-13.441L151.629,269.571z"/>
							<path fill="#FFA754" d="M174.215,255.027c0,0-0.647,1.083-0.625,2.77c0.015,1.155,1.467,5.313,1.402,6.915         c-0.306,7.508-4.788,16.996-9.392,16.541c-12.756-1.262-16.741-13.467-18.643-27.614c-0.908-6.751,0.696-12.02,7.009-14.578         C163.782,235.082,171.534,235.789,174.215,255.027z"/>
							<path fill="#E75C2E" d="M167.002,243.265c0,0-1.542,16.821-24.297,22.942c0,0-10.373-12.429,1.028-24.204         c11.401-11.775,39.015-6.682,30.792,19.297C174.524,261.301,174.431,245.088,167.002,243.265z"/>
							
								<ellipse transform="matrix(-0.7484 0.6633 -0.6633 -0.7484 439.2181 367.1592)" fill="#FFA754" cx="149.965" cy="266.892" rx="3.613" ry="5.55"/>
						</g>
					</g>
					<g>
						<g>
							<path fill="#FFFFFF" d="M148.779,287.315c0,0-8.648,10.578,4.894,12.474c0,0-3.667,9.716,13.469,4.452L148.779,287.315z"/>
						</g>
						<path fill="#FFFFFF" d="M171.207,287.888l-4.065,16.354c0,0,6.723,0.894,7.656-1.066c1.354-2.844-2.844-5.417-2.844-5.417        s8.802-2.302,4.74-6.094C172.632,287.872,171.207,287.888,171.207,287.888z"/>
					</g>
				</g>
			</g>
			<g>
				<path fill="#E75C2E" d="M331.337,243.932c-0.215,0.216,0.096,17.253,1.608,18.92l3.115-2.879l1.161-10.829L331.337,243.932z"/>
				<path fill="#FFA754" d="M320.771,301.288c0,0,6.894-4.148,11.635-5.842c2.779-0.993,4.889-4.048,5.333-6.966      c1.087-7.135,1.946-13.185-0.208-18.699l23.916-8.363c0,0-5.957,20.995,0.9,28.057c1.962,2.02,1.449,1.916,3.702,3.157      c4.863,2.679,5.24,5.17,14.642,6.024c0,0-10.954,30.156-35.247,16.159C345.339,314.759,325.057,308.149,320.771,301.288z"/>
				<path opacity="0.3" fill="#71607D" d="M353.319,278.242l-14.583,2.336c-0.189,2.491-0.572,5.112-0.997,7.902      c-0.015,0.098-0.046,0.197-0.065,0.295C341.645,287.803,350.845,284.885,353.319,278.242z"/>
				
					<ellipse transform="matrix(-0.9777 0.2101 -0.2101 -0.9777 714.7415 456.6255)" fill="#FFA754" cx="333.113" cy="266.282" rx="2.708" ry="4.831"/>
				<path fill="#FFA754" d="M333.586,259.179l-0.73,2.591c-0.42,6.466-0.299,22.925,10.157,22.336      c15.875-0.893,15.801-10.211,16.631-17.354c0.688-5.916-0.031-24.691-5.658-26.642c-8.436-2.925-20.109-0.392-21.045,16.739      C332.907,257.488,333.592,258.498,333.586,259.179z"/>
				<path fill="#E75C2E" d="M357.783,251.413c0,0-21.22,1.125-26.077-3.281c-1.288-1.169-2.024-2.695-2.41-4.306      c-1.177-4.915,3.029-7.815,7.889-9.202c9.41-2.684,19.367,0.492,22.724,3.965c4.299,4.448,4.335,11.625,4.335,11.625      s2.1-0.382,3.508,3.224c1.616,4.137-6.161,14.772-6.161,14.772l-4.093,0.332L357.783,251.413z"/>
				
					<ellipse transform="matrix(0.7814 0.6241 -0.6241 0.7814 245.2389 -165.034)" fill="#FFA754" cx="358.162" cy="267.497" rx="3.748" ry="5.137"/>
				<path fill="#E75C2E" d="M362.832,252.937c0.038-0.184,0.966-4.493,4.422-3.83l0.128-0.669c-4.129-0.785-5.207,4.311-5.217,4.364      L362.832,252.937z"/>
				<path fill="#E75C2E" d="M332.38,261.396c0,0,0.81-0.318,1.059,1.113c1.664,9.539,4.469,6.394,5.75,6.563      c2.97,0.392,4.159,2.47,8.01,1.766c3.851-0.704,6.576-8.405,11.356-8.961c0,0,0.758,7.012-0.459,13.708      c-1.217,6.696-10.519,9.804-15.883,9.483C333.79,284.565,331.202,272.661,332.38,261.396z"/>
				<path fill="#58A9C7" d="M388.49,314.694l-0.122,0.009c0.136-3.832-1.863-9.142-6.202-16.566      c-1.341-2.294-10.689-2.085-16.118-5.504l-0.495,0.665c-20.004,15.835-28.658,11.739-32.968,2.459      c-0.033-0.071-0.244-0.312-0.304-0.291c-2.645,0.935-10.352,2.477-12.892,3.877c-4.033,2.224-6.138,20.704-6.645,21.039      l3.637,21.899h64.76C381.141,342.281,389.023,322.469,388.49,314.694z"/>
			</g>
			<polygon fill="#29568A" points="489.896,420.083 16.953,420.083 116.496,342.356 393.8,342.356    "/>
			<g>
				<polygon fill="#FFFFFF" points="171.615,381.188 131.732,381.188 169.802,358.98 209.685,358.98     "/>
			</g>
			<g>
				<polygon fill="#FFFFFF" points="341.159,383.318 381.042,383.318 342.972,361.11 303.089,361.11     "/>
			</g>
			<path fill="#FFA754" d="M119.996,319.436l-1.73,33.922l39.303,11.184l4.154-6.924c0,0-6.977-1.97-27.001-14.326l3.568-23.966     L119.996,319.436z"/>
			<g>
				<path fill="#FFA754" d="M161.165,357.406l13.752,5.387l-5.406,6.063c0,0-5.89-0.471-10.789-1.73      c-2.402-0.617-3.488-3.407-2.113-5.471L161.165,357.406z"/>
				<path fill="#FFA754" d="M171.629,361.404c0,0,10.3,4.383,13.807,5.26c3.506,0.877-1.972,2.045-7.159-0.073      c-4.108-1.678-9.716-3.799-9.716-3.799L171.629,361.404z"/>
				<path fill="#FFA754" d="M172.798,363.45c0,0,10.3,4.383,13.806,5.26c3.506,0.876-1.972,2.045-7.159-0.073      c-4.108-1.678-9.716-3.799-9.716-3.799L172.798,363.45z"/>
				<path fill="#FFA754" d="M168.269,363.961c0,0,10.3,4.383,13.806,5.26c3.507,0.877-1.972,2.045-7.159-0.073      c-4.108-1.678-9.716-3.799-9.716-3.799L168.269,363.961z"/>
				<path fill="#FFA754" d="M163.84,364.002c0,0,10.162,4.694,13.641,5.677c3.478,0.983-2.034,1.984-7.153-0.291      c-4.055-1.802-9.596-4.092-9.596-4.092L163.84,364.002z"/>
				<path fill="#FFA754" d="M160.964,357.24c0.438,0,11.396,3.579,14.026,3.433c2.63-0.146,3.58-0.438,4.31-0.365      s-0.073,1.461-1.607,1.826c-0.502,0.12-4.018,0.438-6.063,0C169.689,361.719,160.964,357.24,160.964,357.24z"/>
			</g>
			<g>
				<path fill="#FFA754" d="M399.891,332.116l-1.963,33.909l-39.155,8.635l-4.508-9.117c0,0,6.425-2.173,26.024-9.842l-1.065-22.794      L399.891,332.116z"/>
				<g>
					<path fill="#FFA754" d="M355.808,365.625l-16.225,4.396l5.367,7.528c0,0,6.722,0.195,12.421-0.625       c2.795-0.402,4.368-3.424,3.066-5.929L355.808,365.625z"/>
					<path fill="#FFA754" d="M343.474,368.857c0,0-12.195,3.687-16.271,4.245c-4.076,0.559,1.979,2.558,8.109,0.802       c4.855-1.391,11.462-3.098,11.462-3.098L343.474,368.857z"/>
					<path fill="#FFA754" d="M341.899,371.026c0,0-12.196,3.687-16.271,4.245c-4.076,0.559,1.979,2.558,8.109,0.802       c4.855-1.391,11.462-3.098,11.462-3.098L341.899,371.026z"/>
					<path fill="#FFA754" d="M346.96,372.165c0,0-12.195,3.687-16.271,4.245c-4.076,0.559,1.979,2.558,8.109,0.802       c4.855-1.391,11.462-3.098,11.462-3.098L346.96,372.165z"/>
					<path fill="#FFA754" d="M351.967,372.758c0,0-12.078,4.055-16.135,4.738c-4.057,0.682,2.056,2.497,8.129,0.555       c4.811-1.538,11.363-3.444,11.363-3.444L351.967,372.758z"/>
					<path fill="#FFA754" d="M356.056,365.463c-0.496-0.054-13.336,2.642-16.294,2.152c-2.957-0.49-3.996-0.938-4.831-0.946       c-0.835-0.007-0.098,1.662,1.593,2.265c0.554,0.198,4.492,0.992,6.86,0.749C345.631,369.452,356.056,365.463,356.056,365.463z"/>
				</g>
			</g>
			<path fill="#58A9C7" d="M381.354,297.439c0,0,18.533,11.397,18.746,39.516h-23.22L381.354,297.439z"/>
			<g>
				<g>
					<g>
						<polygon fill="#FFA754" points="231.04,245.529 225.224,259.435 230.932,261.973       "/>
						<path fill="#FFA754" d="M237.046,303.779c0.14-0.037,0.279-0.073,0.415-0.111c3.949-1.083,8.782-29.536,6.377-37.39        l37.024-17.562c0,0-7.22,8.869-7.01,36.652c0.069,9.052,6.673,17.603,9.659,19.555"/>
						<path fill="#E0783C" d="M253.867,295.693l-2.28-25.198c0,0-2.938,6.186-3.167,6.862c-0.211,0.623-3.3,3.514-4.526,4.11        c-0.678,5.878-1.881,12.028-3.243,16.378L253.867,295.693z"/>
						<path fill="#FFA754" d="M230.191,248.89l1.382,28.318c0.135,2.771,2.278,5.128,5.047,5.288        c17.629,1.018,43.11-25.262,42.426-42.866c-0.357-9.209-10.089-13.16-19.442-15.051        C245.062,221.637,233.367,219.116,230.191,248.89z"/>
						<path fill="#E75C2E" d="M235.629,227.569l-3.676-11.849c-10.295-15.919,58.296,10.194,53.553,25.837        c-9.803,32.332-11.655,43.81-11.655,43.81s-19.702,3.174-15.269-25.091c-13.415,5.584-6.917-22.797-6.917-22.797        C252.44,233.056,241.402,230.772,235.629,227.569z"/>
						<g>
							<path fill="#FFA754" d="M260.665,264.14c-2.556,3.417-6.774,4.698-9.421,2.863c-2.648-1.835-2.722-6.093-0.166-9.509         c2.556-3.416,6.773-4.698,9.421-2.862C263.145,256.467,263.22,260.724,260.665,264.14z"/>
						</g>
					</g>
				</g>
				<path fill="#1F1A4F" d="M306.848,424.54l7.759-42.742l-1.031,42.742h29.642c-0.184-6.294-0.465-35.392-0.879-44.779      c-2.057-46.637-22.131-72.165-23.895-74.323c-1.675-2.833-43.634-14.651-43.634-14.651c-3.136,4.25-32.817,1.9-32.817,1.9      c-4.089,0.758-29.144,9.595-29.144,9.595c-2.175,1.087-3.354,1.603-4.757,5.452c-3.617,5.848-12.547,23.991-14.254,62.701      c-0.647,14.656-0.968,46.571-1.103,54.106H306.848z"/>
			</g>
		</g>
	</g>
	<g clip-path="url(#SVGID_2_)">
		<text transform="matrix(1 0 0 1 166.3331 179.9756)" fill="#D0D6EC" font-family="'ALSSector-Bold'" font-size="28.6998">Медиация</text>
	</g>
</g>
</svg>