<?xml version="1.0" encoding="UTF-8"?>
<!-- Generator: Adobe Illustrator 17.0.0, SVG Export Plug-In . SVG Version: 6.00 Build 0)  -->
<!DOCTYPE svg PUBLIC "-//W3C//DTD SVG 1.1//EN" "http://www.w3.org/Graphics/SVG/1.1/DTD/svg11.dtd">
<svg version="1.1" id="Слой_1" xmlns="http://www.w3.org/2000/svg" xmlns:xlink="http://www.w3.org/1999/xlink" x="0px" y="0px" width="505.085px" height="505.085px" viewBox="0 0 505.085 505.085" enable-background="new 0 0 505.085 505.085" xml:space="preserve">
<g>
	<g>
		<path fill="#F1F4FA" d="M391.486,336.305c-57.283,56.418-196.749,52.839-252.96-17.279    c-20.504-25.576-42.827-76.093-23.556-108.915c10.481-17.851,29.274-23.672,32.016-45.177    c2.885-22.63-16.013-31.183-12.483-46.739c6.133-27.028,71.764-39.019,122.571-35.23c8.987,0.67,104.787,8.697,119.092,53.069    c8.497,26.356-19.474,41.603-8.611,70.363c10.521,27.853,41.807,26.921,51.997,52.624    C430.393,286.371,407.929,320.11,391.486,336.305z"/>
		<g>
			<g>
				<g>
					<path fill="#D0D6EC" d="M309.743,125.137v144.469H196.307V125.137H309.743 M313.743,121.137H192.307v152.469h121.436V121.137       L313.743,121.137z"/>
				</g>
			</g>
			
				<rect x="208.279" y="171.061" transform="matrix(1 -0.0013 0.0013 1 -0.2269 0.3311)" fill="#D0D6EC" width="87.82" height="4.048"/>
			
				<rect x="208.299" y="186.353" transform="matrix(1 -0.0013 0.0013 1 -0.247 0.3312)" fill="#D0D6EC" width="87.82" height="4.048"/>
			
				<rect x="208.319" y="201.645" transform="matrix(1 -0.0013 0.0013 1 -0.2671 0.3312)" fill="#D0D6EC" width="87.82" height="4.048"/>
			
				<rect x="208.339" y="216.936" transform="matrix(1 -0.0013 0.0013 1 -0.2871 0.3312)" fill="#D0D6EC" width="87.82" height="4.048"/>
			
				<rect x="208.375" y="232.25" transform="matrix(1 -0.0013 0.0013 1 -0.308 0.3105)" fill="#D0D6EC" width="54.985" height="4.048"/>
			
				<rect x="208.359" y="247.261" transform="matrix(1 -0.0013 0.0013 1 -0.3277 0.3105)" fill="#D0D6EC" width="54.985" height="4.048"/>
			<g>
				<circle fill="#D0D6EC" cx="283.735" cy="242.991" r="11.686"/>
				<polygon fill="#D0D6EC" points="288.519,266.918 284.115,262.309 279.507,266.918 279.507,247.664 288.519,247.664     "/>
				<g>
					<circle fill="#FFFFFF" cx="283.734" cy="242.991" r="6.929"/>
				</g>
			</g>
			<text transform="matrix(1 0 0 1 226.3258 157)" fill="#D0D6EC" font-family="'ALSSector-Bold'" font-size="28.6998">Суд</text>
		</g>
		<g>
			<g>
				<rect x="162.527" y="215.602" fill="#E75C2E" width="199.245" height="8.057"/>
				<rect x="259.001" y="217.701" fill="#E75C2E" width="8.057" height="201.927"/>
				<rect x="239.1" y="417.301" fill="#E75C2E" width="47.703" height="8.057"/>
			</g>
			<circle fill="#1F1A4F" cx="262.952" cy="219.674" r="6.829"/>
			<path fill="#1F1A4F" d="M102.838,359.076l-1.154-0.492l60.511-141.814c0.098-0.23,0.322-0.379,0.57-0.382     c0.003,0,0.005,0,0.006,0c0.247,0,0.471,0.145,0.572,0.371l63.288,141.009l-1.144,0.513l-62.701-139.701L102.838,359.076z"/>
			<path fill="#1F1A4F" d="M301.759,359.076l-1.154-0.492l60.513-141.814c0.098-0.23,0.322-0.379,0.57-0.382     c0.003,0,0.005,0,0.007,0c0.247,0,0.471,0.145,0.572,0.371l63.288,141.009l-1.144,0.513L361.71,218.581L301.759,359.076z"/>
			<rect x="100.465" y="357.53" fill="#1F1A4F" width="127.825" height="10.9"/>
			<rect x="299.387" y="357.53" fill="#1F1A4F" width="127.825" height="10.9"/>
		</g>
	</g>
</g>
</svg>