<svg width="110" height="110" viewBox="0 0 110 110" fill="none" xmlns="http://www.w3.org/2000/svg">
<path fill-rule="evenodd" clip-rule="evenodd" d="M105.294 45.5573H4.74835C2.41296 45.5573 0.517578 43.8382 0.517578 41.72C0.517578 39.6019 2.41296 37.8828 4.74835 37.8828H105.294C107.629 37.8828 109.525 39.6019 109.525 41.72C109.525 43.8382 107.629 45.5573 105.294 45.5573Z" fill="white"/>
<path fill-rule="evenodd" clip-rule="evenodd" d="M80.1108 65.5377C77.7754 65.5377 75.8574 63.8186 75.8574 61.7005C75.8574 59.5824 77.7246 57.8633 80.06 57.8633H80.1108C82.4461 57.8633 84.3415 59.5824 84.3415 61.7005C84.3415 63.8186 82.4461 65.5377 80.1108 65.5377Z" fill="white"/>
<path fill-rule="evenodd" clip-rule="evenodd" d="M55.0776 65.5377C52.7422 65.5377 50.8242 63.8186 50.8242 61.7005C50.8242 59.5824 52.6914 57.8633 55.0268 57.8633H55.0776C57.4129 57.8633 59.3083 59.5824 59.3083 61.7005C59.3083 63.8186 57.4129 65.5377 55.0776 65.5377Z" fill="white"/>
<path fill-rule="evenodd" clip-rule="evenodd" d="M29.9953 65.5377C27.6599 65.5377 25.7363 63.8186 25.7363 61.7005C25.7363 59.5824 27.6091 57.8633 29.9445 57.8633H29.9953C32.3307 57.8633 34.2261 59.5824 34.2261 61.7005C34.2261 63.8186 32.3307 65.5377 29.9953 65.5377Z" fill="white"/>
<path fill-rule="evenodd" clip-rule="evenodd" d="M80.1108 85.4225C77.7754 85.4225 75.8574 83.7034 75.8574 81.5853C75.8574 79.4671 77.7246 77.748 80.06 77.748H80.1108C82.4461 77.748 84.3415 79.4671 84.3415 81.5853C84.3415 83.7034 82.4461 85.4225 80.1108 85.4225Z" fill="white"/>
<path fill-rule="evenodd" clip-rule="evenodd" d="M55.0776 85.4225C52.7422 85.4225 50.8242 83.7034 50.8242 81.5853C50.8242 79.4671 52.6914 77.748 55.0268 77.748H55.0776C57.4129 77.748 59.3083 79.4671 59.3083 81.5853C59.3083 83.7034 57.4129 85.4225 55.0776 85.4225Z" fill="white"/>
<path fill-rule="evenodd" clip-rule="evenodd" d="M29.9953 85.4225C27.6599 85.4225 25.7363 83.7034 25.7363 81.5853C25.7363 79.4671 27.6091 77.748 29.9445 77.748H29.9953C32.3307 77.748 34.2261 79.4671 34.2261 81.5853C34.2261 83.7034 32.3307 85.4225 29.9953 85.4225Z" fill="white"/>
<path fill-rule="evenodd" clip-rule="evenodd" d="M77.8069 24.5122C75.4716 24.5122 73.5762 22.7931 73.5762 20.6749V3.83722C73.5762 1.71907 75.4716 0 77.8069 0C80.1423 0 82.0377 1.71907 82.0377 3.83722V20.6749C82.0377 22.7931 80.1423 24.5122 77.8069 24.5122Z" fill="white"/>
<path fill-rule="evenodd" clip-rule="evenodd" d="M32.2386 24.5122C29.9032 24.5122 28.0078 22.7931 28.0078 20.6749V3.83722C28.0078 1.71907 29.9032 0 32.2386 0C34.574 0 36.4694 1.71907 36.4694 3.83722V20.6749C36.4694 22.7931 34.574 24.5122 32.2386 24.5122Z" fill="white"/>
<mask id="mask0_80_4658" style="mask-type:alpha" maskUnits="userSpaceOnUse" x="0" y="8" width="110" height="102">
<path fill-rule="evenodd" clip-rule="evenodd" d="M0 8.07812H110V109.999H0V8.07812Z" fill="white"/>
</mask>
<g mask="url(#mask0_80_4658)">
<path fill-rule="evenodd" clip-rule="evenodd" d="M31.144 15.7524C16.5168 15.7524 8.46141 22.8283 8.46141 35.6753V81.9726C8.46141 95.101 16.5168 102.325 31.144 102.325H78.8558C93.4829 102.325 101.538 95.234 101.538 82.3615V35.6753C101.561 29.3567 99.6881 24.445 95.9706 21.0683C92.146 17.5892 86.2512 15.7524 78.9065 15.7524H31.144ZM78.8559 110H31.1441C11.9364 110 0 99.2607 0 81.9727V35.6754C0 18.6484 11.9364 8.07812 31.1441 8.07812H78.9067C88.5472 8.07812 96.518 10.6977 101.962 15.6451C107.247 20.4596 110.028 27.3819 110 35.6856V82.3616C110 99.4091 98.0636 110 78.8559 110Z" fill="white"/>
</g>
</svg>
