<svg width="130" height="130" viewBox="0 0 130 130" fill="none" xmlns="http://www.w3.org/2000/svg">
<path fill-rule="evenodd" clip-rule="evenodd" d="M87.5236 44.594C87.5236 57.3214 77.3772 67.5268 64.7233 67.5268C52.0694 67.5268 41.9229 57.3214 41.9229 44.594C41.9229 31.8616 52.0694 21.666 64.7233 21.666C77.3772 21.666 87.5236 31.8616 87.5236 44.594ZM64.7233 108.333C46.1377 108.333 30.2682 105.386 30.2682 93.6003C30.2682 81.8094 46.0358 78.7556 64.7233 78.7556C83.3088 78.7556 99.1784 81.7021 99.1784 93.4929C99.1784 105.279 83.4107 108.333 64.7233 108.333ZM97.2669 45.0076C97.2669 51.4958 95.3317 57.54 91.9367 62.5646C91.5875 63.0817 91.8979 63.7793 92.5138 63.8866C93.3626 64.033 94.2405 64.1159 95.1329 64.1403C104.033 64.3744 112.021 58.6132 114.228 49.9396C117.497 37.056 107.898 25.4896 95.6761 25.4896C94.3472 25.4896 93.0765 25.6311 91.8397 25.8848C91.6699 25.9238 91.4905 26.0018 91.3935 26.1531C91.2771 26.3384 91.3644 26.5872 91.4808 26.7482C95.1523 31.9241 97.2669 38.2366 97.2669 45.0076ZM112.006 73.1924C117.987 74.3681 121.92 76.7682 123.55 80.2562C124.927 83.1197 124.927 86.4419 123.55 89.3005C121.057 94.7106 113.02 96.4472 109.897 96.896C109.252 96.9936 108.733 96.4326 108.8 95.7838C110.396 80.7928 97.7034 73.6851 94.4199 72.0509C94.2793 71.9777 94.2502 71.8655 94.2647 71.7972C94.2744 71.7485 94.3326 71.6704 94.4393 71.6558C101.545 71.5241 109.184 72.4997 112.006 73.1924ZM34.867 64.1398C35.7594 64.1154 36.6325 64.0373 37.4861 63.8861C38.102 63.7788 38.4124 63.0812 38.0632 62.5641C34.6682 57.5395 32.733 51.4953 32.733 45.0072C32.733 38.2361 34.8476 31.9236 38.5191 26.7477C38.6355 26.5867 38.718 26.338 38.6064 26.1526C38.5094 26.0062 38.3251 25.9233 38.1602 25.8843C36.9186 25.6306 35.6479 25.4891 34.319 25.4891C22.0967 25.4891 12.4984 37.0555 15.7722 49.9391C17.979 58.6127 25.9671 64.374 34.867 64.1398ZM35.7328 71.7943C35.7473 71.8675 35.7182 71.9748 35.5824 72.0529C32.2941 73.6871 19.6013 80.7948 21.197 95.7809C21.2649 96.4345 20.7508 96.9907 20.1058 96.898C16.9823 96.4492 8.94567 94.7125 6.45272 89.3025C5.07045 86.4389 5.07045 83.1217 6.45272 80.2581C8.08236 76.7702 12.0109 74.3701 17.9911 73.1895C20.8187 72.5017 28.4528 71.526 35.563 71.6577C35.6697 71.6724 35.7231 71.7504 35.7328 71.7943Z" fill="white"/>
</svg>
