<svg width="100" height="100" viewBox="0 0 100 100" fill="none" xmlns="http://www.w3.org/2000/svg">
<path d="M88.3456 17.5017V12.9707H64.5187V17.5017H52.8643V28.691H66.1147V33.222H77.7687V80.1366H80.5758H100V17.5017H88.3456ZM92.2302 62.8322H84.4603V54.8365H92.2302V62.8322ZM92.2302 50.8915H85.1341H84.4607V42.8958H92.2306V50.8915H92.2302ZM92.2302 38.8977H84.4603V30.902H92.2302V38.8977ZM22.231 33.222V67.166H19.4238H0V4.53101H11.6544V0H35.4813V4.53101H47.1357V28.691H33.8853V33.222H22.231ZM73.5679 100H54.1437V86.8868H45.856V100H26.4321V37.365H38.0865V32.834H61.9135V37.365H73.5679V100ZM41.9714 69.2957H34.2016V77.2914H41.971V69.2957H41.9714ZM41.9714 57.355H34.2016V65.3507H41.971V57.355H41.9714ZM41.9714 45.3612H34.2016V53.3569H41.971V45.3612H41.9714ZM54.1437 69.2957H45.856V77.2914H54.1437V69.2957ZM54.0921 65.3511V57.355H50H49.948H45.856V65.3507H54.1437H54.0921V65.3511ZM54.1437 45.3612H50.0516H50H45.9079V53.3569H50H50.052H54.144V45.3612H54.1437ZM65.798 69.2957H58.0286V77.2914H65.798V69.2957ZM65.798 57.355H58.0286V65.3507H58.702H65.7984V57.355H65.798ZM65.798 45.3612H58.0286V53.3569H65.798V45.3612Z" fill="white"/>
</svg>
