<svg width="188" height="188" viewBox="0 0 188 188" fill="none" xmlns="http://www.w3.org/2000/svg">
<path fill-rule="evenodd" clip-rule="evenodd" d="M58.7497 13.7083C58.7497 6.14133 64.891 0 72.458 0H115.541C123.108 0 129.25 6.14133 129.25 13.7083V31.3333H166.458C174.025 31.3333 180.166 37.4747 180.166 45.0417V158.625C180.166 162.261 178.722 165.747 176.151 168.318C173.58 170.889 170.094 172.333 166.458 172.333H21.5413C17.9057 172.333 14.4189 170.889 11.8481 168.318C9.27727 165.747 7.83301 162.261 7.83301 158.625V45.0417C7.83301 37.4747 13.9743 31.3333 21.5413 31.3333H58.7497V13.7083ZM19.583 93.9217V158.625C19.583 159.706 20.4603 160.583 21.5413 160.583H166.458C166.977 160.583 167.475 160.377 167.843 160.01C168.21 159.642 168.416 159.144 168.416 158.625V93.9217C162.406 99.0388 154.768 101.844 146.875 101.833H41.1247C33.2313 101.844 25.593 99.0388 19.583 93.9217ZM168.416 68.5417C168.416 74.2549 166.147 79.7341 162.107 83.7739C158.067 87.8138 152.588 90.0833 146.875 90.0833H41.1247C35.4115 90.0833 29.9323 87.8138 25.8924 83.7739C21.8526 79.7341 19.583 74.2549 19.583 68.5417V45.0417C19.583 44.5223 19.7893 44.0242 20.1566 43.6569C20.5238 43.2897 21.022 43.0833 21.5413 43.0833H166.458C166.977 43.0833 167.475 43.2897 167.843 43.6569C168.21 44.0242 168.416 44.5223 168.416 45.0417V68.5417ZM117.5 13.7083V31.3333H70.4997V13.7083C70.4997 13.189 70.706 12.6908 71.0733 12.3236C71.4405 11.9563 71.9386 11.75 72.458 11.75H115.541C116.061 11.75 116.559 11.9563 116.926 12.3236C117.293 12.6908 117.5 13.189 117.5 13.7083Z" fill="white"/>
</svg>
