<svg width="130" height="130" viewBox="0 0 130 130" fill="none" xmlns="http://www.w3.org/2000/svg">
<path d="M24.4944 119.871V110.272C24.4944 107.822 26.2036 105.835 28.312 105.835H36.0191C37.0316 105.835 38.0026 106.303 38.7185 107.135C39.4345 107.967 39.8367 109.095 39.8367 110.272V119.871C39.8303 120.89 40.174 121.869 40.7916 122.592C41.4091 123.315 42.2495 123.722 43.126 123.722H48.3842C50.8399 123.729 53.1973 122.6 54.936 120.585C56.6748 118.569 57.652 115.833 57.652 112.979V85.6332C57.6519 83.3278 56.7726 81.1409 55.251 79.6618L37.3637 63.0592C34.2521 60.1482 29.794 60.2422 26.7753 63.2824L9.29619 79.6618C7.70264 81.0973 6.75019 83.2906 6.70312 85.6332V112.951C6.70313 118.899 10.8525 123.722 15.9709 123.722H21.109C22.9296 123.722 24.4092 122.015 24.4224 119.899L24.4944 119.871Z" fill="white"/>
<path d="M57.9592 63.9341V54.5234C57.9592 52.1212 59.6684 50.1738 61.7768 50.1738H69.484C70.4964 50.1738 71.4675 50.632 72.1834 51.4478C72.8993 52.2635 73.3015 53.3698 73.3015 54.5234V63.9341C73.2951 64.9328 73.6389 65.8931 74.2564 66.6019C74.874 67.3107 75.7143 67.7093 76.5909 67.7092H81.849C84.3048 67.7165 86.6621 66.6101 88.4009 64.6341C90.1396 62.6581 91.1168 59.9751 91.1168 57.177V30.3677C91.1167 28.1075 90.2375 25.9635 88.7158 24.5134L70.8285 8.23634C67.717 5.38241 63.2588 5.47456 60.2402 8.45519L42.761 24.5134C41.1675 25.9208 40.215 28.0711 40.168 30.3677V57.1497C40.168 62.9816 44.3173 67.7092 49.4358 67.7092H54.5739C56.3944 67.7093 57.874 66.0357 57.8872 63.9614L57.9592 63.9341Z" fill="white"/>
<path d="M90.1389 120.071V110.66C90.1389 108.258 91.8481 106.31 93.9565 106.31H101.664C102.676 106.31 103.647 106.769 104.363 107.584C105.079 108.4 105.481 109.507 105.481 110.66V120.071C105.475 121.069 105.819 122.03 106.436 122.739C107.054 123.447 107.894 123.846 108.771 123.846H114.029C116.484 123.853 118.842 122.747 120.581 120.771C122.319 118.795 123.297 116.112 123.297 113.314V86.5044C123.296 84.2442 122.417 82.1002 120.896 80.6501L103.008 64.3731C99.8967 61.5191 95.4385 61.6113 92.4199 64.5919L74.9407 80.6501C73.3472 82.0575 72.3947 84.2078 72.3477 86.5044V113.286C72.3477 119.118 76.497 123.846 81.6154 123.846H86.7536C88.5741 123.846 90.0537 122.172 90.0669 120.098L90.1389 120.071Z" fill="white"/>
</svg>
