<svg width="17" height="20" viewBox="0 0 17 20" fill="none" xmlns="http://www.w3.org/2000/svg">
<path fill-rule="evenodd" clip-rule="evenodd" d="M8.49993 0H8.5333C13.2197 0.0184162 17.0183 3.84197 16.9999 8.52232V8.61528C16.9366 11.96 14.9258 14.7356 13.2504 16.4746C12.7736 16.9718 12.2661 17.4489 11.7427 17.8944C11.4292 18.1619 10.9586 18.1251 10.6908 17.812C10.423 17.498 10.4607 17.028 10.7742 16.7605C11.2589 16.3475 11.7304 15.9037 12.1739 15.4416C13.6649 13.8946 15.4527 11.4487 15.5071 8.58809C15.522 4.65842 12.3916 1.50574 8.52715 1.48996H8.49993C4.64862 1.48996 1.50768 4.61194 1.49276 8.46093C1.55861 10.3622 2.20138 12.1696 3.35256 13.6859C4.69604 15.4749 6.73409 17.3691 8.67116 18.6302C9.01713 18.8547 9.1146 19.316 8.88893 19.6615C8.74668 19.8807 8.50696 20 8.26285 20C8.12323 20 7.98274 19.9614 7.85629 19.879C5.78224 18.5293 3.5993 16.5 2.16011 14.5839C0.824529 12.8238 0.0772721 10.7235 0 8.51267C0.0184399 3.78585 3.82848 0 8.49993 0ZM6.75516 8.61414C6.75516 9.57266 7.53667 10.354 8.4973 10.354C9.45793 10.354 10.2394 9.57266 10.2394 8.61414C10.2394 7.65474 9.45793 6.87337 8.4973 6.87337C8.08547 6.87337 7.75092 6.54012 7.75092 6.12883C7.75092 5.71665 8.08547 5.38341 8.4973 5.38341C10.2807 5.38341 11.7322 6.83215 11.7322 8.61414C11.7322 10.3952 10.2807 11.844 8.4973 11.844C6.71389 11.844 5.26241 10.3952 5.26241 8.61414C5.26241 8.20196 5.59696 7.86872 6.00879 7.86872C6.42061 7.86872 6.75516 8.20196 6.75516 8.61414Z" fill="#FF0000"/>
</svg>
