<svg width="130" height="130" viewBox="0 0 130 130" fill="none" xmlns="http://www.w3.org/2000/svg">
<path fill-rule="evenodd" clip-rule="evenodd" d="M48.3484 88.7798H77.5233C79.7222 88.7798 81.5456 86.9381 81.5456 84.7173C81.5456 82.4965 79.7222 80.709 77.5233 80.709H48.3484C46.1496 80.709 44.3261 82.4965 44.3261 84.7173C44.3261 86.9381 46.1496 88.7798 48.3484 88.7798ZM66.4755 53.6257H48.3484C46.1496 53.6257 44.3261 55.4673 44.3261 57.6882C44.3261 59.909 46.1496 61.6965 48.3484 61.6965H66.4755C68.6743 61.6965 70.4978 59.909 70.4978 57.6882C70.4978 55.4673 68.6743 53.6257 66.4755 53.6257ZM104.749 48.8894C106.009 48.8748 107.382 48.859 108.629 48.859C109.97 48.859 111.042 49.9423 111.042 51.2965V94.8465C111.042 108.28 100.263 119.167 86.9623 119.167H44.2725C30.3286 119.167 18.959 107.738 18.959 93.6548V35.2631C18.959 21.8298 29.7923 10.834 43.1463 10.834H71.7849C73.1793 10.834 74.2519 11.9715 74.2519 13.3257V30.7673C74.2519 40.6798 82.3501 48.8048 92.1644 48.859C94.4569 48.859 96.4778 48.8761 98.2465 48.8911C99.6224 48.9028 100.846 48.9131 101.925 48.9131C102.689 48.9131 103.678 48.9017 104.749 48.8894ZM106.227 40.9832C101.819 40.9994 96.6222 40.9832 92.8842 40.9452C86.9526 40.9452 82.0669 36.0107 82.0669 30.0198V15.7415C82.0669 13.4069 84.8718 12.2477 86.4753 13.9323C89.3793 16.982 93.3706 21.1747 97.343 25.3476C101.301 29.5054 105.24 33.6436 108.067 36.6119C109.633 38.2532 108.485 40.9777 106.227 40.9832Z" fill="white"/>
</svg>
