<svg width="121" height="127" viewBox="0 0 121 127" fill="none" xmlns="http://www.w3.org/2000/svg">
<path d="M42.1912 119.085V99.838C42.1912 94.9248 46.2034 90.9418 51.1526 90.9418H69.2445C71.6212 90.9418 73.9005 91.8791 75.5811 93.5474C77.2617 95.2158 78.2059 97.4786 78.2059 99.838V119.085C78.1908 121.128 78.9977 123.092 80.4474 124.542C81.8971 125.991 83.8697 126.807 85.9273 126.807H98.2704C104.035 126.821 109.569 124.558 113.65 120.517C117.732 116.476 120.026 110.988 120.026 105.265V50.433C120.026 45.8103 117.961 41.4253 114.39 38.4594L72.4007 5.16841C65.0966 -0.668648 54.6315 -0.480185 47.5455 5.61602L6.51472 38.4594C2.774 41.3379 0.53822 45.7358 0.427734 50.433V105.209C0.427734 117.137 10.1679 126.807 22.1831 126.807H34.2443C38.518 126.807 41.9912 123.384 42.0221 119.141L42.1912 119.085Z" fill="white"/>
</svg>
