<svg width="162" height="144" viewBox="0 0 162 144" fill="none" xmlns="http://www.w3.org/2000/svg">
<path d="M65.8844 86.202C62.0031 82.758 59.6406 78.078 59.6406 72.828C59.6406 62.31 69.1716 53.832 80.9976 53.832C86.8499 53.832 92.2364 55.938 96.0501 59.382" stroke="white" stroke-width="6" stroke-linecap="round" stroke-linejoin="round"/>
<path d="M101.959 76.1934C100.393 83.9334 93.5347 90.0414 84.834 91.4454" stroke="white" stroke-width="6" stroke-linecap="round" stroke-linejoin="round"/>
<path d="M44.9193 104.834C34.207 97.3579 25.135 86.4379 18.5605 72.8239C25.2025 59.1499 34.3353 48.1699 45.115 40.6339C55.8273 33.0979 68.1865 29.0059 80.998 29.0059C93.8838 29.0059 106.236 33.1579 117.016 40.7479" stroke="white" stroke-width="6" stroke-linecap="round" stroke-linejoin="round"/>
<path d="M131.271 53.9453C135.915 59.4293 139.999 65.7593 143.435 72.8213C130.158 100.163 106.695 116.633 80.9973 116.633C75.172 116.633 69.4278 115.793 63.9062 114.155" stroke="white" stroke-width="6" stroke-linecap="round" stroke-linejoin="round"/>
<path d="M134.238 25.498L27.7637 120.142" stroke="white" stroke-width="6" stroke-linecap="round" stroke-linejoin="round"/>
</svg>
