<svg width="93" height="139" viewBox="0 0 93 139" fill="none" xmlns="http://www.w3.org/2000/svg">
<path d="M5 28.4543C5 27.9081 5.43185 27.4604 5.97742 27.4342C9.09596 27.2844 18.9994 26.5238 25.75 22.7875C32.7488 18.9137 43.1368 8.0896 45.8386 5.21077C46.2114 4.81356 46.8272 4.78835 47.2359 5.14853L57.6626 14.3378C63.9531 19.8818 71.5368 23.7548 79.716 25.6005L87.2201 27.2938C87.6761 27.3967 88 27.8018 88 28.2692V81.2628C88 83.6088 87.1752 85.88 85.6699 87.6794L47.267 133.583C46.8673 134.061 46.1327 134.061 45.733 133.583L25.75 109.697L7.3301 87.6794C5.82479 85.88 5 83.6088 5 81.2628V28.4543Z" stroke="white" stroke-width="9"/>
<path d="M33.5313 56.1812L43.9062 66.5176L64.6562 45.8448" stroke="white" stroke-width="9" stroke-linecap="round" stroke-linejoin="round"/>
</svg>
