<svg width="213" height="213" viewBox="0 0 213 213" fill="none" xmlns="http://www.w3.org/2000/svg">
<path fill-rule="evenodd" clip-rule="evenodd" d="M152.424 212.171H60.5072C24.6634 212.171 0.580078 187.014 0.580078 149.577V62.9727C0.580078 25.5352 24.6634 0.378906 60.5072 0.378906H99.4551C103.768 0.378906 107.268 3.87891 107.268 8.19141C107.268 12.5039 103.768 16.0039 99.4551 16.0039H60.5072C33.5905 16.0039 16.2051 34.4414 16.2051 62.9727V149.577C16.2051 178.108 33.5905 196.546 60.5072 196.546H152.424C179.34 196.546 196.736 178.108 196.736 149.577V107.618C196.736 103.306 200.236 99.806 204.549 99.806C208.861 99.806 212.361 103.306 212.361 107.618V149.577C212.361 187.014 188.268 212.171 152.424 212.171Z" fill="white"/>
<path fill-rule="evenodd" clip-rule="evenodd" d="M72.1183 139.875H103.129C107.087 139.875 110.795 138.344 113.597 135.542L191.816 57.3229C195.025 54.1146 196.795 49.8437 196.795 45.3021C196.795 40.75 195.025 36.4687 191.816 33.2604L179.139 20.5833C172.504 13.9688 161.712 13.9688 155.066 20.5833L77.2224 98.4271C74.5245 101.125 72.9933 104.708 72.8995 108.51L72.1183 139.875ZM103.129 155.5H64.1079C62.0037 155.5 59.9829 154.646 58.5141 153.135C57.0454 151.635 56.2433 149.604 56.2954 147.49L57.2745 108.125C57.4724 100.292 60.6287 92.9271 66.1704 87.375H66.1808L144.025 9.53125C156.754 -3.17708 177.452 -3.17708 190.181 9.53125L202.858 22.2083C209.035 28.375 212.431 36.5729 212.42 45.3021C212.42 54.0312 209.025 62.2187 202.858 68.375L124.639 146.594C118.9 152.333 111.254 155.5 103.129 155.5Z" fill="white"/>
<path fill-rule="evenodd" clip-rule="evenodd" d="M185.277 82.4609C183.277 82.4609 181.277 81.7005 179.756 80.1693L132.193 32.6068C129.141 29.5547 129.141 24.6068 132.193 21.5547C135.245 18.5026 140.183 18.5026 143.235 21.5547L190.798 69.1276C193.85 72.1797 193.85 77.1172 190.798 80.1693C189.277 81.7005 187.277 82.4609 185.277 82.4609Z" fill="white"/>
</svg>
