<svg width="130" height="130" viewBox="0 0 130 130" fill="none" xmlns="http://www.w3.org/2000/svg">
<path fill-rule="evenodd" clip-rule="evenodd" d="M41.3692 18.3922C27.4105 18.3922 18.3917 27.9634 18.3917 42.7293V87.2218C18.3917 91.3655 19.1609 95.0651 20.4772 98.2663C20.534 98.1985 21.7738 96.6876 23.3911 94.7167C26.5516 90.8652 31.1537 85.2571 31.1859 85.2284C34.9342 80.9493 41.9705 74.5684 51.2059 78.4305C53.2297 79.2697 55.0286 80.4192 56.6846 81.4773C56.8458 81.5804 57.0057 81.6825 57.1642 81.7834C60.268 83.858 62.0934 84.833 63.9892 84.6705C64.7747 84.5622 65.5113 84.3293 66.2101 83.8959C68.846 82.2709 75.6799 72.5878 77.7262 69.6883C78.0263 69.2631 78.2234 68.9838 78.2892 68.8972C84.1934 61.2055 93.2934 59.1472 100.877 63.6972C101.895 64.3039 109.191 69.4009 111.607 71.4484V42.7293C111.607 27.9634 102.588 18.3922 88.5809 18.3922H41.3692ZM88.5809 10.8359C106.873 10.8359 119.163 23.6301 119.163 42.7293V87.2218C119.163 87.7021 119.113 88.1526 119.063 88.6028C119.027 88.9192 118.992 89.2354 118.974 89.5618C118.962 89.7591 118.957 89.9564 118.951 90.1537C118.943 90.4168 118.936 90.6799 118.914 90.943C118.903 91.0459 118.883 91.1448 118.863 91.2437C118.842 91.3425 118.822 91.4414 118.811 91.5443C118.633 93.2451 118.356 94.8701 117.972 96.4464C117.881 96.8404 117.776 97.2203 117.67 97.6037L117.647 97.6868C117.213 99.2143 116.704 100.671 116.092 102.063C115.985 102.297 115.872 102.526 115.759 102.754C115.683 102.906 115.608 103.058 115.534 103.212C114.873 104.539 114.158 105.812 113.33 106.993C113.176 107.211 113.013 107.416 112.85 107.621C112.742 107.757 112.634 107.893 112.528 108.033C111.667 109.148 110.768 110.216 109.749 111.185C109.546 111.378 109.326 111.555 109.106 111.732C108.969 111.843 108.832 111.953 108.698 112.068C107.653 112.967 106.586 113.828 105.41 114.565C105.154 114.726 104.881 114.861 104.61 114.996C104.434 115.083 104.259 115.17 104.089 115.264C102.892 115.925 101.684 116.569 100.368 117.068C100.051 117.188 99.7139 117.275 99.3759 117.362C99.1359 117.424 98.8953 117.486 98.6613 117.561C98.5442 117.597 98.4271 117.633 98.3101 117.67C97.1344 118.035 95.9624 118.4 94.6963 118.617C93.9628 118.745 93.1844 118.795 92.4054 118.844C92.0684 118.866 91.7312 118.887 91.3976 118.915C91.0388 118.941 90.6871 118.985 90.335 119.028C89.7621 119.099 89.1881 119.169 88.5809 119.169H41.3692C39.3326 119.169 37.388 118.963 35.5084 118.655C35.4386 118.644 35.3741 118.633 35.3096 118.622L35.308 118.622C27.9792 117.36 21.8963 113.823 17.6334 108.488C17.6038 108.488 17.5922 108.468 17.5767 108.441C17.5667 108.424 17.5551 108.404 17.5359 108.385C13.2513 102.99 10.8301 95.7368 10.8301 87.2218V42.7293C10.8301 23.6301 23.1313 10.8359 41.3692 10.8359H88.5809ZM59.5833 46.1231C59.5833 53.4624 53.4423 59.5838 46.0679 59.5838C39.5857 59.5838 34.0589 54.8477 32.8202 48.7159C32.6155 47.7959 32.5 46.8497 32.5 45.8722C32.5 38.4806 38.5045 32.5004 45.9262 32.5004C49.7053 32.5004 53.1274 34.0896 55.5786 36.6249C58.0402 39.0713 59.5833 42.443 59.5833 46.1231Z" fill="white"/>
</svg>
