<svg width="710" height="1255" viewBox="0 0 710 1255" fill="none" xmlns="http://www.w3.org/2000/svg">
<g clip-path="url(#clip0_27_253)">
<path d="M122.681 1221.42C122.711 1221.48 122.751 1221.55 122.781 1221.62L428.471 1058.92C409.101 1022.46 385.511 989.69 358.661 960.82L105.211 1196.89C111.921 1204.1 117.831 1212.29 122.681 1221.42Z" fill="#FAF6F3"/>
<path d="M0 814.18V1161.95C8.27 1160.45 16.59 1159.87 24.85 1160.17L36.99 814.02C24.69 813.58 12.35 813.63 0 814.18Z" fill="#FAF6F3"/>
<path d="M470.779 1172.03L133.219 1249.58C133.679 1251.57 134.069 1253.56 134.419 1255.55H482.109C480.909 1227.67 477.169 1199.72 470.779 1172.03Z" fill="#FAF6F3"/>
<path d="M81.7911 1177.61L265.831 884.18C231.441 862.69 194.461 845.87 155.951 834.07L54.6211 1165.2C64.1411 1168.12 73.2711 1172.3 81.7911 1177.61Z" fill="#FAF6F3"/>
<path d="M698.691 74.6209L697.621 266.641C701.771 266.671 705.921 266.581 710.071 266.411V73.7109C706.291 74.3509 702.481 74.6609 698.691 74.6209Z" fill="#FAF6F3"/>
<path d="M643.701 42.3004C643.671 42.2504 643.641 42.2004 643.621 42.1504L476.801 137.16C476.841 137.22 476.871 137.29 476.911 137.35C488.201 157.17 501.761 174.89 517.041 190.41L653.741 55.5704C649.921 51.6804 646.531 47.2604 643.701 42.3004Z" fill="#FAF6F3"/>
<path d="M667.021 65.8711L569.711 231.411C589.101 242.771 609.851 251.491 631.361 257.411L682.261 72.3011C676.941 70.8311 671.821 68.6711 667.021 65.8711Z" fill="#FAF6F3"/>
<path d="M635.302 10.0602L443.292 8.99023C443.132 31.0602 445.842 53.2902 451.552 75.1402L637.382 26.8102C635.932 21.2802 635.252 15.6502 635.302 10.0602Z" fill="#FAF6F3"/>
</g>
<defs>
<clipPath id="clip0_27_253">
<rect width="710" height="1255" fill="white"/>
</clipPath>
</defs>
</svg>