<svg version="1.1" id="Слой_1" xmlns="http://www.w3.org/2000/svg" x="0" y="0" viewBox="0 0 230 48" style="enable-background:new 0 0 230 48" xml:space="preserve" class="svg__logo img logo">
	<style>.st1{fill:#e55b2e}.st2a{fill:#f5b400}.st2b{fill:#575756}</style>
	<path class="st1" d="M4 45.5V11.9l17.7-8 17.7 8v33.6h3.1V10.9c0-.6-.4-1.2-.9-1.4L22.4.7c-.1 0-.2-.1-.6-.1-.4 0-.5.1-.6.1L1.8 9.5c-.6.3-.9.8-.9 1.4v34.6H4z"></path>
	<path class="st1" d="M34 13.2c-1.9 0-4.9.3-7.3 1.2-1.8.7-3.6 2.1-4.9 3.4-1.4-1.3-3.1-2.7-4.9-3.4-2.4-1-5.4-1.2-7.3-1.2H6.4v32.3h3.1V16.4c1.6 0 4.2.2 6.1 1 2.7 1.1 5.3 4 6.1 5 .8-1 3.4-4 6.1-5 1.9-.8 4.5-1 6.1-1v29.1H37V13.2h-3z"></path>
	<path class="st1" d="M21.7 25.8c-1.4-2.1-4.6-5.3-7.2-6.4-.8-.3-1.7-.5-2.6-.6v26.6H15v-22c2.7 1.6 5 4.9 6.7 7.4 1.7-2.5 4-5.7 6.7-7.4v22h3.1V18.8c-.9.1-1.8.3-2.6.6-2.5 1.1-5.8 4.3-7.2 6.4M53.4 45.4V11.8l17.7-8 17.7 8v33.6H92V10.8c0-.6-.4-1.2-.9-1.4L71.8.6c-.1 0-.2-.1-.6-.1-.4 0-.5.1-.6.1L51.2 9.3c-.6.3-.9.8-.9 1.4v34.6h3.1z"></path>
	<path class="st1" d="M71 45.4c1.3 0 2.7-.2 4-.5l-2.9-11.3c-.3.1-.7.1-1 .1L71 45.4zM67.8 31.7s-.1 0 0 0l-10.2 5.8c.7 1.2 1.5 2.3 2.4 3.2l8.3-8.2c-.2-.3-.4-.5-.5-.8M74.5 31.7l10.1 5.9c.7-1.2 1.2-2.4 1.6-3.8l-11.3-3.1c-.1.4-.2.7-.4 1M67.8 27.8l-10.1-5.9c-.7 1.2-1.2 2.5-1.6 3.8l11.3 3.1c.1-.4.2-.7.4-1M74.5 27.8 84.7 22c-.7-1.2-1.5-2.3-2.5-3.2L73.9 27c.3.2.5.5.6.8M71.2 14.1c-1.3 0-2.7.2-4 .5l3 11.3c.3-.1.7-.1 1-.1V14.1z"></path>
	<path class="st2a" d="m69.2 33.1-5.9 10.1c1.2.7 2.4 1.2 3.8 1.6l3.1-11.3c-.4-.1-.7-.2-1-.4M73.1 33.1l5.8 10.2c1.2-.7 2.3-1.5 3.2-2.4l-8.2-8.3c-.2.2-.5.4-.8.5M67.2 29.7l-11.7-.1c0 1.3.2 2.7.5 4l11.3-2.9c0-.3-.1-.7-.1-1M75.1 29.8l11.7.1c0-1.4-.2-2.7-.5-4.1l-11.3 3c0 .3.1.6.1 1M69.2 26.3l-5.8-10.2c-1.2.7-2.3 1.5-3.2 2.5l8.2 8.3c.2-.2.5-.4.8-.6M73.1 26.4 79 16.3c-1.2-.7-2.5-1.2-3.8-1.6l-3 11.3c.3.1.6.2.9.4"></path>
	<path class="st2b" d="M107.3 15.4c1.6-2 3.3-3.4 5.9-3.7v13.6h-2.6v-9.7l-3.1 3.3h-.2l-3.1-3.3v9.7h-2.6V11.7c2.3.3 4 1.7 5.7 3.7zM115.1 18.5c0-4.2 2.9-7 6.9-7s6.9 2.8 6.9 7c0 4-2.9 7-6.9 7s-6.9-3.1-6.9-7zm10.9 0c0-2.5-1.7-4.3-4.1-4.3-2.4 0-4.1 1.8-4.1 4.3s1.7 4.3 4.1 4.3c2.5-.1 4.1-1.9 4.1-4.3zM130.8 11.7h2.5v6.7l5.1-6.9h.4v13.8h-2.5v-6.7l-5.1 6.9h-.4V11.7zm1.5-3h2.1c0 .4.4.7.9.7s.9-.3.9-.7h2.1c0 1.7-1.4 2.5-2.9 2.5-1.8 0-3.1-.8-3.1-2.5zM144.6 18.5c0-4.3 3-7 7.1-7 .6 0 1 0 1.4.2v2.7c-.4-.1-.8-.2-1.4-.2-2.5 0-4.3 1.7-4.3 4.3s1.8 4.3 4.3 4.3c.6 0 1 0 1.4-.2v2.7c-.4.2-.9.2-1.4.2-4.1 0-7.1-3-7.1-7zM155.3 11.7h6.3v2.5H158v2.7h2.9v2.5H158v3.3h3.9v2.5h-6.6V11.7zM169.5 15.4c1.6-2 3.3-3.4 5.9-3.7v13.6h-2.6v-9.7l-3.1 3.3h-.2l-3.1-3.3v9.7h-2.6V11.7c2.4.3 4.1 1.7 5.7 3.7zM177.7 11.7h6.3v2.5h-3.6v2.7h2.9v2.5h-2.9v3.3h3.9v2.5h-6.6V11.7zM186 11.7h2.5v6.7l5.1-6.9h.4v13.8h-2.5v-6.7l-5.1 6.9h-.4V11.7zm1.5-3h2.1c0 .4.4.7.9.7s.9-.3.9-.7h2.1c0 1.7-1.4 2.5-2.9 2.5-1.7 0-3.1-.8-3.1-2.5zM201.8 19.4h-2.7v5.9h-2.7V11.7h2.7v5.2h2.7v-5.2h2.7v13.6h-2.7v-5.9zM206.9 11.7h2.7v4.7c3.7 0 5.1 2.1 5.1 4.5 0 2.9-1.7 4.5-5.2 4.5H207V11.7zm5 9.1c0-1.3-.8-1.9-2.3-1.9v3.9c1.5-.1 2.3-.7 2.3-2zm3.9-9.1h2.7v13.6h-2.7V11.7zM220.9 11.7h2.5v6.7l5.1-6.9h.4v13.8h-2.5v-6.7l-5.1 6.9h-.4V11.7zm1.4-3h2.1c0 .4.4.7.9.7s.9-.3.9-.7h2.1c0 1.7-1.4 2.5-2.9 2.5-1.7 0-3.1-.8-3.1-2.5zM101.4 31.8h2.7v11.1h2.7V31.8h2.7v11.1h.8v4.7h-2.5v-2.1h-6.4V31.8zM112.1 31.8h6.3v2.5h-3.6V37h2.9v2.5h-2.9v3.3h3.9v2.5h-6.6V31.8zM125.9 39.5h-2.7v5.9h-2.7V31.8h2.7V37h2.7v-5.2h2.7v13.6h-2.7v-5.9zM132.7 34.3h-2.5v-2.5h7.8v2.5h-2.5v11.1h-2.7V34.3zM139.5 31.8h2.1c3.7 0 5.7 1.5 5.7 4.5 0 2.3-1.3 4.5-5.2 4.5v4.7h-2.7V31.8zm5 4.4c0-1.3-.8-1.9-2.3-1.9v3.9c1.5 0 2.3-.7 2.3-2z"></path>
</svg>